<svg height="45" viewBox="0 0 207 45" fill="none" xmlns="http://www.w3.org/2000/svg" class="c-logo">
<g clip-path="url(#clip0_1701_78822)" class="c-logo__group">
<path class="c-logo__path" d="M29.2243 5.96144C26.0116 4.32373 22.1407 3.50488 17.6116 3.50488H0V44.4147H17.6074C22.1407 44.4147 26.0075 43.6081 29.2201 41.9909C32.4286 40.3737 34.8919 38.0563 36.6059 35.0348C38.3198 32.0132 39.1768 28.3816 39.1768 24.1318C39.1768 19.8819 38.3198 16.1561 36.6059 13.0568C34.8919 9.96153 32.4286 7.59095 29.2201 5.95734L29.2243 5.96144ZM26.7692 30.4164C25.9826 32.1115 24.811 33.4093 23.2544 34.3019C21.6936 35.1985 19.8182 35.6489 17.6116 35.6489H10.9337V12.2748H17.6116C19.8182 12.2748 21.6977 12.7333 23.2544 13.6505C24.811 14.5635 25.9826 15.9064 26.7692 17.6792C27.5558 19.452 27.9533 21.6056 27.9533 24.1359C27.9533 26.6661 27.5558 28.7255 26.7692 30.4205V30.4164Z" fill="#272B37"></path>
<path class="c-logo__path" d="M63.6438 11.689C62.0665 11.689 60.5512 12.1066 59.0939 12.9459C57.6367 13.7811 56.3077 14.9316 55.1071 16.3933C54.4199 17.2285 53.8237 18.1579 53.2855 19.1364L52.3002 12.2744H43.3164V44.4185H53.6002V30.801C53.6002 29.7119 53.7078 28.7375 53.9272 27.8777C54.1425 27.022 54.4571 26.2686 54.8711 25.6299C55.2851 24.9871 55.8068 24.4426 56.4402 23.9922C57.0695 23.5459 57.8064 23.2143 58.6551 22.9973C59.5038 22.7844 60.4353 22.6739 61.462 22.6739C62.0126 22.6739 62.555 22.7025 63.089 22.7598C63.619 22.8172 64.0868 22.9072 64.4759 23.0219L64.7119 11.8036C64.6333 11.7668 64.4884 11.734 64.2689 11.7176C64.0495 11.6972 63.8425 11.689 63.6479 11.689H63.6438Z" fill="#272B37"></path>
<path class="c-logo__path" d="M77.7115 12.2744H67.4277V44.4184H77.7115V12.2744Z" fill="#272B37"></path>
<path d="M77.7115 0H67.4277V8.88454H77.7115V0Z" fill="#C12BF3"></path>
<path class="c-logo__path" d="M107.433 13.4986C104.953 12.2908 102.138 11.689 98.9836 11.689C95.4356 11.689 92.3803 12.4014 89.8218 13.8221C87.2591 15.2428 85.2885 17.2121 83.9098 19.726C82.5312 22.2399 81.8398 25.114 81.8398 28.3485C81.8398 31.583 82.5602 34.6782 83.9968 37.1757C85.4334 39.6691 87.433 41.5975 89.9956 42.9609C92.5583 44.3243 95.5515 45.008 98.9794 45.008C102.13 45.008 104.8 44.5986 106.986 43.7798C109.172 42.9609 110.923 41.7941 112.244 40.2751C113.565 38.7561 114.5 36.926 115.051 34.7806L105.653 33.1429C105.376 34.0027 104.962 34.7315 104.411 35.3374C103.861 35.9434 103.14 36.3896 102.254 36.6803C101.364 36.971 100.313 37.1184 99.0912 37.1184C97.5139 37.1184 96.1849 36.7786 95.1044 36.0948C94.0197 35.4111 93.1917 34.4203 92.6204 33.1142C92.3099 32.4141 92.1029 31.6157 91.9621 30.7477H114.989C115.146 30.1254 115.254 29.5031 115.312 28.8808C115.374 28.2584 115.399 27.5952 115.399 26.8909C115.399 23.6974 114.691 20.9707 113.271 18.7106C111.855 16.4506 109.901 14.7146 107.421 13.5068L107.433 13.4986ZM92.2478 24.8397C92.3679 24.4016 92.4589 23.9349 92.6287 23.5541C93.2 22.2685 94.0239 21.2859 95.1127 20.6022C96.1974 19.9184 97.5263 19.5786 99.0995 19.5786C100.441 19.5786 101.621 19.8243 102.647 20.3115C103.67 20.7987 104.49 21.5479 105.098 22.5592C105.475 23.1856 105.695 23.9717 105.839 24.8397H92.2478Z" fill="#272B37"></path>
<path class="c-logo__path" d="M146.584 13.7649C144.436 12.3851 141.923 11.6891 139.049 11.6891C136.57 11.6891 134.342 12.4097 132.372 13.8508C131.287 14.6451 130.36 15.6359 129.536 16.7496V0.585449H119.252V44.4145H128.236L129.006 39.0469C129.954 40.529 131.03 41.8556 132.372 42.8382C134.342 44.2794 136.57 45 139.049 45C141.927 45 144.436 44.308 146.584 42.9283C148.729 41.5485 150.393 39.6078 151.577 37.1144C152.757 34.621 153.349 31.6977 153.349 28.3486C153.349 24.9995 152.757 22.0762 151.577 19.5828C150.393 17.0894 148.729 15.1528 146.584 13.769V13.7649ZM142.034 32.8195C141.504 34.0478 140.747 34.9936 139.762 35.6528C138.776 36.312 137.592 36.6436 136.218 36.6436C134.843 36.6436 133.647 36.312 132.641 35.6528C131.635 34.9895 130.869 34.0437 130.335 32.8195C129.805 31.5913 129.536 30.101 129.536 28.3486C129.536 26.5963 129.801 25.1551 130.335 23.9063C130.865 22.6617 131.635 21.7077 132.641 21.0445C133.647 20.3853 134.835 20.0496 136.218 20.0496C137.6 20.0496 138.776 20.3812 139.762 21.0445C140.747 21.7077 141.504 22.6617 142.034 23.9063C142.564 25.1551 142.833 26.6331 142.833 28.3486C142.833 30.0641 142.568 31.5913 142.034 32.8195Z" fill="#272B37"></path>
<path d="M167.77 0H157.486V8.88454H167.77V0Z" fill="#C12BF3"></path>
<path class="c-logo__path" d="M167.77 12.2744H157.486V44.4184H167.77V12.2744Z" fill="#272B37"></path>
<path d="M207.001 35.5342H196.717V44.4187H207.001V35.5342Z" fill="#C12BF3"></path>
<path class="c-logo__path" d="M185.438 4.38477H177.403C177.324 6.2149 177.204 7.65608 177.051 8.7083C176.893 9.75643 176.645 10.5384 176.31 11.0461C175.974 11.5538 175.473 11.8854 174.803 12.0369C174.132 12.1966 173.225 12.2744 172.083 12.2744H170.133V20.164H175.097V34.281C175.097 39.882 179.688 44.4184 185.347 44.4184H193.288V35.5339H187.517C186.37 35.5339 185.434 34.6127 185.434 33.4745V20.164H193.284V12.2744H185.434V4.38477H185.438Z" fill="#272B37"></path>
</g>
<defs>
<clipPath id="clip0_1701_78822">
<rect width="207" height="45" fill="white"></rect>
</clipPath>
</defs>
</svg>