<?xml version="1.0" encoding="UTF-8"?>
<svg width="175px" height="47px" viewBox="0 0 175 47" version="1.1" xmlns="http://www.w3.org/2000/svg" xmlns:xlink="http://www.w3.org/1999/xlink">
    <!-- Generator: Sketch 46.2 (44496) - http://www.bohemiancoding.com/sketch -->
    <title>Zoetermeer_logolang_RGB</title>
    <desc>Created with Sketch.</desc>
    <defs>
        <polygon id="path-1" points="0.0326600721 0.0898316742 0.0326600721 16.6509814 58.8665139 16.6509814 58.8665139 0.0898316742 0.0326600721 0.0898316742"></polygon>
    </defs>
    <g id="Symbols" stroke="none" stroke-width="1" fill="none" fill-rule="evenodd">
        <g id="Footer" transform="translate(-55.000000, -85.000000)">
            <g id="Zoetermeer_logolang_RGB">
                <g transform="translate(55.000000, 83.000000)">
                    <path d="M5.953125,13 L1.17773438,13 L1.17773438,4.43359375 L5.953125,4.43359375 L5.953125,5.31835938 L2.17382812,5.31835938 L2.17382812,8.078125 L5.72460938,8.078125 L5.72460938,8.95703125 L2.17382812,8.95703125 L2.17382812,12.109375 L5.953125,12.109375 L5.953125,13 Z M11.0179688,13.1171875 C10.0687453,13.1171875 9.31972933,12.8281279 8.77089846,12.25 C8.22206759,11.6718721 7.94765627,10.8691458 7.94765627,9.84179688 C7.94765627,8.80663545 8.20253654,7.98437805 8.71230471,7.375 C9.22207289,6.76562195 9.90663635,6.4609375 10.7660156,6.4609375 C11.5707072,6.4609375 12.2074196,6.72558329 12.6761719,7.25488281 C13.1449242,7.78418233 13.3792969,8.48241754 13.3792969,9.34960938 L13.3792969,9.96484375 L8.95546877,9.96484375 C8.97500012,10.7187538 9.1654279,11.2910137 9.52675784,11.6816406 C9.88808777,12.0722676 10.3968717,12.2675781 11.053125,12.2675781 C11.7445347,12.2675781 12.4281216,12.1230483 13.1039063,11.8339844 L13.1039063,12.7011719 C12.7601546,12.8496101 12.4349625,12.9560544 12.1283203,13.0205078 C11.8216782,13.0849613 11.4515647,13.1171875 11.0179688,13.1171875 Z M10.7542969,7.27539062 C10.2386693,7.27539062 9.82754062,7.4433577 9.52089846,7.77929688 C9.2142563,8.11523605 9.03359405,8.58007516 8.97890627,9.17382812 L12.3363281,9.17382812 C12.3363281,8.56054381 12.1996108,8.09082194 11.9261719,7.76464844 C11.652733,7.43847493 11.2621119,7.27539062 10.7542969,7.27539062 Z M20.0320313,13 L20.0320313,8.84570312 C20.0320313,8.32226301 19.9128919,7.93164191 19.6746094,7.67382812 C19.436327,7.41601434 19.0632838,7.28710938 18.5554688,7.28710938 C17.8835904,7.28710938 17.3914079,7.46874818 17.0789063,7.83203125 C16.7664047,8.19531432 16.6101563,8.7949177 16.6101563,9.63085938 L16.6101563,13 L15.6375,13 L15.6375,6.578125 L16.4285157,6.578125 L16.5867188,7.45703125 L16.6335938,7.45703125 C16.8328135,7.14062342 17.1121076,6.89550868 17.4714844,6.72167969 C17.8308612,6.54785069 18.2312478,6.4609375 18.6726563,6.4609375 C19.4460977,6.4609375 20.0281231,6.64745907 20.41875,7.02050781 C20.809377,7.39355655 21.0046875,7.99023027 21.0046875,8.81054688 L21.0046875,13 L20.0320313,13 Z M28.2925782,13 L27.319922,13 L27.319922,6.578125 L28.2925782,6.578125 L28.2925782,13 Z M27.2378907,4.83789062 C27.2378907,4.61523326 27.2925777,4.45214896 27.4019532,4.34863281 C27.5113288,4.24511667 27.6480462,4.19335938 27.8121095,4.19335938 C27.9683603,4.19335938 28.1031245,4.24609322 28.2164063,4.3515625 C28.3296882,4.45703178 28.3863282,4.61913953 28.3863282,4.83789062 C28.3863282,5.05664172 28.3296882,5.21972603 28.2164063,5.32714844 C28.1031245,5.43457085 27.9683603,5.48828125 27.8121095,5.48828125 C27.6480462,5.48828125 27.5113288,5.43457085 27.4019532,5.32714844 C27.2925777,5.21972603 27.2378907,5.05664172 27.2378907,4.83789062 Z M35.3496095,13 L35.3496095,8.84570312 C35.3496095,8.32226301 35.2304701,7.93164191 34.9921876,7.67382812 C34.7539052,7.41601434 34.380862,7.28710938 33.873047,7.28710938 C33.2011686,7.28710938 32.7089861,7.46874818 32.3964845,7.83203125 C32.0839829,8.19531432 31.9277345,8.7949177 31.9277345,9.63085938 L31.9277345,13 L30.9550782,13 L30.9550782,6.578125 L31.7460939,6.578125 L31.904297,7.45703125 L31.951172,7.45703125 C32.1503917,7.14062342 32.4296858,6.89550868 32.7890626,6.72167969 C33.1484394,6.54785069 33.548826,6.4609375 33.9902345,6.4609375 C34.7636759,6.4609375 35.3457013,6.64745907 35.7363282,7.02050781 C36.1269552,7.39355655 36.3222657,7.99023027 36.3222657,8.81054688 L36.3222657,13 L35.3496095,13 Z M39.8929689,13 L38.9203126,13 L38.9203126,6.578125 L39.8929689,6.578125 L39.8929689,13 Z M38.8382814,4.83789062 C38.8382814,4.61523326 38.8929683,4.45214896 39.0023439,4.34863281 C39.1117194,4.24511667 39.2484368,4.19335938 39.4125001,4.19335938 C39.5687509,4.19335938 39.7035152,4.24609322 39.816797,4.3515625 C39.9300788,4.45703178 39.9867189,4.61913953 39.9867189,4.83789062 C39.9867189,5.05664172 39.9300788,5.21972603 39.816797,5.32714844 C39.7035152,5.43457085 39.5687509,5.48828125 39.4125001,5.48828125 C39.2484368,5.48828125 39.1117194,5.43457085 39.0023439,5.32714844 C38.8929683,5.21972603 38.8382814,5.05664172 38.8382814,4.83789062 Z M44.6296877,12.3144531 C44.8015635,12.3144531 44.9675775,12.3017579 45.1277345,12.2763672 C45.2878916,12.2509764 45.4148434,12.2246095 45.5085939,12.1972656 L45.5085939,12.9414062 C45.4031246,12.9921878 45.2478528,13.0341795 45.0427736,13.0673828 C44.8376945,13.1005861 44.653126,13.1171875 44.4890627,13.1171875 C43.246869,13.1171875 42.6257814,12.4628972 42.6257814,11.1542969 L42.6257814,7.33398438 L41.7058595,7.33398438 L41.7058595,6.86523438 L42.6257814,6.4609375 L43.0359377,5.08984375 L43.5984377,5.08984375 L43.5984377,6.578125 L45.4617189,6.578125 L45.4617189,7.33398438 L43.5984377,7.33398438 L43.5984377,11.1132812 C43.5984377,11.5000019 43.6902336,11.796874 43.8738283,12.0039062 C44.057423,12.2109385 44.3093736,12.3144531 44.6296877,12.3144531 Z M48.3644533,13 L47.3917971,13 L47.3917971,6.578125 L48.3644533,6.578125 L48.3644533,13 Z M47.3097658,4.83789062 C47.3097658,4.61523326 47.3644528,4.45214896 47.4738283,4.34863281 C47.5832039,4.24511667 47.7199212,4.19335938 47.8839846,4.19335938 C48.0402353,4.19335938 48.1749996,4.24609322 48.2882814,4.3515625 C48.4015633,4.45703178 48.4582033,4.61913953 48.4582033,4.83789062 C48.4582033,5.05664172 48.4015633,5.21972603 48.2882814,5.32714844 C48.1749996,5.43457085 48.0402353,5.48828125 47.8839846,5.48828125 C47.7199212,5.48828125 47.5832039,5.43457085 47.4738283,5.32714844 C47.3644528,5.21972603 47.3097658,5.05664172 47.3097658,4.83789062 Z M54.9761721,13 L54.7828127,12.0859375 L54.7359377,12.0859375 C54.4156236,12.4882833 54.0962909,12.7607415 53.7779299,12.9033203 C53.4595689,13.0458992 53.062112,13.1171875 52.5855471,13.1171875 C51.9488252,13.1171875 51.4498067,12.9531266 51.0884768,12.625 C50.7271468,12.2968734 50.5464846,11.8300812 50.5464846,11.2246094 C50.5464846,9.92772789 51.5835836,9.24804719 53.6578127,9.18554688 L54.7476565,9.15039062 L54.7476565,8.75195312 C54.7476565,8.24804436 54.6392591,7.87597776 54.4224612,7.63574219 C54.2056632,7.39550661 53.858987,7.27539062 53.3824221,7.27539062 C52.8472632,7.27539062 52.2418005,7.43945148 51.5660158,7.76757812 L51.2671877,7.0234375 C51.5835955,6.85156164 51.9302718,6.71679736 52.3072268,6.61914062 C52.6841818,6.52148389 53.0621077,6.47265625 53.4410158,6.47265625 C54.2066447,6.47265625 54.7740218,6.64257643 55.1431643,6.98242188 C55.5123067,7.32226732 55.6968752,7.86718375 55.6968752,8.6171875 L55.6968752,13 L54.9761721,13 Z M52.7789065,12.3144531 C53.3843782,12.3144531 53.8599594,12.1484392 54.2056643,11.8164062 C54.5513691,11.4843733 54.724219,11.0195342 54.724219,10.421875 L54.724219,9.84179688 L53.7515627,9.8828125 C52.9781213,9.91015639 52.4205097,10.0302724 52.0787112,10.2431641 C51.7369126,10.4560558 51.5660158,10.7871071 51.5660158,11.2363281 C51.5660158,11.5878924 51.6724601,11.8554678 51.8853518,12.0390625 C52.0982435,12.2226572 52.3960921,12.3144531 52.7789065,12.3144531 Z M60.3750002,12.3144531 C60.5468761,12.3144531 60.7128901,12.3017579 60.8730471,12.2763672 C61.0332042,12.2509764 61.160156,12.2246095 61.2539065,12.1972656 L61.2539065,12.9414062 C61.1484372,12.9921878 60.9931653,13.0341795 60.7880862,13.0673828 C60.583007,13.1005861 60.3984386,13.1171875 60.2343752,13.1171875 C58.9921815,13.1171875 58.371094,12.4628972 58.371094,11.1542969 L58.371094,7.33398438 L57.4511721,7.33398438 L57.4511721,6.86523438 L58.371094,6.4609375 L58.7812502,5.08984375 L59.3437502,5.08984375 L59.3437502,6.578125 L61.2070315,6.578125 L61.2070315,7.33398438 L59.3437502,7.33398438 L59.3437502,11.1132812 C59.3437502,11.5000019 59.4355462,11.796874 59.6191409,12.0039062 C59.8027355,12.2109385 60.0546861,12.3144531 60.3750002,12.3144531 Z M64.1097659,13 L63.1371096,13 L63.1371096,6.578125 L64.1097659,6.578125 L64.1097659,13 Z M63.0550784,4.83789062 C63.0550784,4.61523326 63.1097653,4.45214896 63.2191409,4.34863281 C63.3285164,4.24511667 63.4652338,4.19335938 63.6292971,4.19335938 C63.7855479,4.19335938 63.9203122,4.24609322 64.033594,4.3515625 C64.1468758,4.45703178 64.2035159,4.61913953 64.2035159,4.83789062 C64.2035159,5.05664172 64.1468758,5.21972603 64.033594,5.32714844 C63.9203122,5.43457085 63.7855479,5.48828125 63.6292971,5.48828125 C63.4652338,5.48828125 63.3285164,5.43457085 63.2191409,5.32714844 C63.1097653,5.21972603 63.0550784,5.05664172 63.0550784,4.83789062 Z M69.4851565,13.1171875 C68.535933,13.1171875 67.7869171,12.8281279 67.2380862,12.25 C66.6892554,11.6718721 66.414844,10.8691458 66.414844,9.84179688 C66.414844,8.80663545 66.6697243,7.98437805 67.1794925,7.375 C67.6892606,6.76562195 68.3738241,6.4609375 69.2332034,6.4609375 C70.0378949,6.4609375 70.6746073,6.72558329 71.1433597,7.25488281 C71.612112,7.78418233 71.8464847,8.48241754 71.8464847,9.34960938 L71.8464847,9.96484375 L67.4226565,9.96484375 C67.4421879,10.7187538 67.6326157,11.2910137 67.9939456,11.6816406 C68.3552755,12.0722676 68.8640595,12.2675781 69.5203128,12.2675781 C70.2117225,12.2675781 70.8953094,12.1230483 71.571094,11.8339844 L71.571094,12.7011719 C71.2273423,12.8496101 70.9021503,12.9560544 70.5955081,13.0205078 C70.2888659,13.0849613 69.9187525,13.1171875 69.4851565,13.1171875 Z M69.2214847,7.27539062 C68.7058571,7.27539062 68.2947284,7.4433577 67.9880862,7.77929688 C67.6814441,8.11523605 67.5007818,8.58007516 67.446094,9.17382812 L70.8035159,9.17382812 C70.8035159,8.56054381 70.6667985,8.09082194 70.3933597,7.76464844 C70.1199208,7.43847493 69.7292997,7.27539062 69.2214847,7.27539062 Z M76.9992191,7.33398438 L75.3644534,7.33398438 L75.3644534,13 L74.3917972,13 L74.3917972,7.33398438 L73.2433597,7.33398438 L73.2433597,6.89453125 L74.3917972,6.54296875 L74.3917972,6.18554688 C74.3917972,4.60741398 75.0812434,3.81835938 76.4601566,3.81835938 C76.800002,3.81835938 77.1984355,3.88671807 77.6554691,4.0234375 L77.4035159,4.80273438 C77.0285141,4.68164002 76.7082048,4.62109375 76.4425784,4.62109375 C76.0753891,4.62109375 75.8039074,4.74316284 75.6281253,4.98730469 C75.4523432,5.23144653 75.3644534,5.62304418 75.3644534,6.16210938 L75.3644534,6.578125 L76.9992191,6.578125 L76.9992191,7.33398438 Z M83.8945316,13 L81.4570316,6.578125 L82.5000004,6.578125 L83.8828129,10.3867188 C84.1953144,11.2773482 84.3789063,11.8554674 84.4335941,12.1210938 L84.4804691,12.1210938 C84.5234381,11.9140615 84.6591789,11.4853548 84.8876957,10.8349609 C85.1162124,10.1845671 85.6289026,8.76563594 86.4257816,6.578125 L87.4687504,6.578125 L85.0312504,13 L83.8945316,13 Z M93.0492191,13 L92.8558598,12.0859375 L92.8089848,12.0859375 C92.4886707,12.4882833 92.1693379,12.7607415 91.8509769,12.9033203 C91.532616,13.0458992 91.135159,13.1171875 90.6585941,13.1171875 C90.0218722,13.1171875 89.5228538,12.9531266 89.1615238,12.625 C88.8001939,12.2968734 88.6195316,11.8300812 88.6195316,11.2246094 C88.6195316,9.92772789 89.6566306,9.24804719 91.7308598,9.18554688 L92.8207035,9.15039062 L92.8207035,8.75195312 C92.8207035,8.24804436 92.7123062,7.87597776 92.4955082,7.63574219 C92.2787102,7.39550661 91.932034,7.27539062 91.4554691,7.27539062 C90.9203102,7.27539062 90.3148475,7.43945148 89.6390629,7.76757812 L89.3402348,7.0234375 C89.6566426,6.85156164 90.0033188,6.71679736 90.3802738,6.61914062 C90.7572288,6.52148389 91.1351547,6.47265625 91.5140629,6.47265625 C92.2796917,6.47265625 92.8470688,6.64257643 93.2162113,6.98242188 C93.5853538,7.32226732 93.7699223,7.86718375 93.7699223,8.6171875 L93.7699223,13 L93.0492191,13 Z M90.8519535,12.3144531 C91.4574253,12.3144531 91.9330065,12.1484392 92.2787113,11.8164062 C92.6244162,11.4843733 92.797266,11.0195342 92.797266,10.421875 L92.797266,9.84179688 L91.8246098,9.8828125 C91.0511684,9.91015639 90.4935568,10.0302724 90.1517582,10.2431641 C89.8099596,10.4560558 89.6390629,10.7871071 89.6390629,11.2363281 C89.6390629,11.5878924 89.7455071,11.8554678 89.9583988,12.0390625 C90.1712905,12.2226572 90.4691391,12.3144531 90.8519535,12.3144531 Z M100.76836,13 L100.76836,8.84570312 C100.76836,8.32226301 100.64922,7.93164191 100.410938,7.67382812 C100.172655,7.41601434 99.7996123,7.28710938 99.2917973,7.28710938 C98.6199189,7.28710938 98.1277363,7.46874818 97.8152348,7.83203125 C97.5027332,8.19531432 97.3464848,8.7949177 97.3464848,9.63085938 L97.3464848,13 L96.3738285,13 L96.3738285,6.578125 L97.1648442,6.578125 L97.3230473,7.45703125 L97.3699223,7.45703125 C97.569142,7.14062342 97.8484361,6.89550868 98.2078129,6.72167969 C98.5671897,6.54785069 98.9675763,6.4609375 99.4089848,6.4609375 C100.182426,6.4609375 100.764452,6.64745907 101.155079,7.02050781 C101.545705,7.39355655 101.741016,7.99023027 101.741016,8.81054688 L101.741016,13 L100.76836,13 Z M104.198438,12.3789062 C104.198438,12.1171862 104.258008,11.918946 104.377149,11.7841797 C104.49629,11.6494134 104.667187,11.5820312 104.889844,11.5820312 C105.116408,11.5820312 105.293164,11.6494134 105.420118,11.7841797 C105.547071,11.918946 105.610547,12.1171862 105.610547,12.3789062 C105.610547,12.6328138 105.546095,12.8281243 105.417188,12.9648438 C105.288281,13.1015632 105.112502,13.1699219 104.889844,13.1699219 C104.690624,13.1699219 104.525587,13.1083991 104.394727,12.9853516 C104.263867,12.8623041 104.198438,12.6601577 104.198438,12.3789062 Z M104.198438,7.20507812 C104.198438,6.67773174 104.428904,6.4140625 104.889844,6.4140625 C105.370315,6.4140625 105.610547,6.67773174 105.610547,7.20507812 C105.610547,7.45898564 105.546095,7.65429619 105.417188,7.79101562 C105.288281,7.92773506 105.112502,7.99609375 104.889844,7.99609375 C104.690624,7.99609375 104.525587,7.93457093 104.394727,7.81152344 C104.263867,7.68847595 104.198438,7.48632953 104.198438,7.20507812 Z" id="Een-initiatief-van:" fill="#FFFFFF"></path>
                    <g id="Group-2" transform="translate(0.000000, 2.000000)">
                        <path d="M78.0777126,43.9990096 C76.2269752,43.9990096 75.2455401,42.6825672 75.2455401,40.1841578 C75.2455401,37.643827 76.6510118,36.5282809 78.1000304,36.5282809 C79.9964919,36.5282809 80.9104296,37.8659562 80.9104296,40.2309792 C80.9104296,42.7952652 79.617635,43.9990096 78.0777126,43.9990096 Z M78.3025228,34.5198624 C74.933092,34.5198624 72.7709953,37.0841484 72.7709953,40.4307866 C72.7709953,44.3332923 74.778501,46.0504384 77.8550798,46.0504384 C81.1336067,46.0504384 83.3642897,43.4866968 83.3642897,40.0714599 C83.3642897,36.1700431 81.2680574,34.5198624 78.3025228,34.5198624 L78.3025228,34.5198624 Z" id="Fill-1" fill="#FFFFFF"></path>
                        <path d="M108.568612,38.7577397 C108.770015,37.2627229 109.706815,36.282741 111.044789,36.282741 C112.449173,36.282741 113.319563,37.2404011 113.274384,38.7577397 L108.568612,38.7577397 Z M114.662437,43.6081057 C113.811642,43.9532771 112.789926,44.1563511 111.803592,44.1563511 C109.594138,44.1563511 108.458656,42.9945281 108.523432,40.4307866 L115.128931,40.4242534 C115.405453,40.4242534 115.603591,40.2211794 115.632441,39.921196 L115.643872,39.8373531 C115.655847,39.64789 115.660202,39.473671 115.660202,39.3163294 C115.660202,36.6823558 114.299366,34.5198624 111.13406,34.5198624 C107.900169,34.5198624 106.071749,37.0182719 106.071749,40.3627323 C106.071749,44.2674157 107.964945,46.0504384 111.423646,46.0504384 C112.593421,46.0504384 113.764285,45.8696862 114.77838,45.5196148 L114.851321,45.493482 C115.143628,45.3922172 115.250862,45.170088 115.198062,44.8711935 L115.074498,43.8122686 L115.074498,43.8100909 C115.044015,43.6353274 114.867651,43.5280738 114.676045,43.6048391 L114.662437,43.6081057 L114.662437,43.6081057 Z" id="Fill-2" fill="#FFFFFF"></path>
                        <path d="M120.056248,38.7577397 C120.257651,37.2627229 121.193907,36.282741 122.531881,36.282741 C123.936809,36.282741 124.807199,37.2404011 124.761475,38.7577397 L120.056248,38.7577397 Z M126.149528,43.6081057 C125.299278,43.9532771 124.277562,44.1563511 123.290139,44.1563511 C121.08123,44.1563511 119.946292,42.9945281 120.011068,40.4307866 L126.616023,40.4242534 C126.892001,40.4242534 127.090683,40.2211794 127.118988,39.921196 L127.130964,39.8373531 C127.14185,39.64789 127.147294,39.473671 127.147294,39.3163294 C127.147294,36.6823558 125.786457,34.5198624 122.621696,34.5198624 C119.386716,34.5198624 117.558841,37.0182719 117.558841,40.3627323 C117.558841,44.2674157 119.452036,46.0504384 122.911282,46.0504384 C124.079969,46.0504384 125.251921,45.8696862 126.264927,45.5196148 L126.338957,45.493482 C126.631264,45.3922172 126.737954,45.170088 126.684609,44.8711935 L126.562134,43.8122686 L126.562134,43.8100909 C126.531107,43.6353274 126.354743,43.5280738 126.163137,43.6048391 L126.149528,43.6081057 L126.149528,43.6081057 Z" id="Fill-3" fill="#FFFFFF"></path>
                        <path d="M15.3055984,38.7577397 C15.5075466,37.2627229 16.443802,36.282741 17.7823206,36.282741 C19.1861593,36.282741 20.0570946,37.2404011 20.0119148,38.7577397 L15.3055984,38.7577397 Z M21.3999679,43.6081057 C20.5497174,43.9532771 19.5274571,44.1563511 18.5411229,44.1563511 C16.331669,44.1563511 15.1956429,42.9945281 15.260963,40.4307866 L21.8664626,40.4242534 C22.1424402,40.4242534 22.3411223,40.2211794 22.369972,39.921196 L22.3808587,39.8373531 C22.3922898,39.64789 22.3982774,39.473671 22.3982774,39.3163294 C22.3982774,36.6823558 21.0363524,34.5198624 17.8710471,34.5198624 C14.6377,34.5198624 12.8087359,37.0182719 12.8087359,40.3627323 C12.8087359,44.2674157 14.7030201,46.0504384 18.1611774,46.0504384 C19.3309523,46.0504384 20.5012716,45.8696862 21.5148225,45.5196148 L21.5883076,45.493482 C21.8811596,45.3922172 21.9883935,45.170088 21.9345044,44.8711935 L21.8120291,43.8122686 L21.8120291,43.8100909 C21.7820907,43.6353274 21.6046377,43.5280738 21.4130319,43.6048391 L21.3999679,43.6081057 L21.3999679,43.6081057 Z" id="Fill-4" fill="#FFFFFF"></path>
                        <path d="M64.0153743,29.9896239 C64.0153743,29.7146845 63.7894754,29.4892887 63.5140422,29.4892887 L60.4467171,29.4892887 C60.2714414,29.4892887 60.111407,29.5595207 59.9878431,29.6711298 C59.8392397,29.8061495 59.7434369,29.9999681 59.7434369,30.2171975 L59.7434369,30.6554671 C59.7434369,30.8710632 59.8365181,31.0627041 59.982944,31.1955461 C60.106508,31.3109662 60.2687197,31.3839204 60.4467171,31.3839204 C60.4467171,31.3839204 61.6175807,31.3817426 61.6175807,31.3866425 L61.5979846,45.3263406 C61.5990733,45.6029133 61.8260608,45.8283091 62.0993167,45.8283091 L63.5173082,45.8283091 C63.7916528,45.8283091 64.0159186,45.6029133 64.0159186,45.3263406 L64.0153743,29.9896239" id="Fill-5" fill="#FFFFFF"></path>
                        <g id="Group-9" transform="translate(0.000000, 29.399457)">
                            <mask id="mask-2" fill="white">
                                <use xlink:href="#path-1"></use>
                            </mask>
                            <g id="Clip-7"></g>
                            <path d="M53.1776737,14.7111616 C52.4662285,14.7111616 51.9071969,14.6441962 51.4178401,14.4879435 L51.4178401,11.0547403 C51.4178401,9.17861937 52.3764133,7.10650208 54.1601975,7.10650208 C55.6538515,7.10650208 56.3680184,8.33256833 56.3680184,10.5598494 C56.3680184,13.5515164 55.0523618,14.7111616 53.1776737,14.7111616 Z M49.559482,16.2638885 C50.600794,16.4914621 51.6426503,16.6063377 52.9768143,16.6063377 C56.6804664,16.6063377 58.8665139,14.1765271 58.8665139,10.338809 C58.8665139,6.99380416 57.4158624,5.12040543 54.7845492,5.12040543 C53.2778313,5.12040543 52.0405589,5.86682498 51.4047761,7.07111385 L51.4036874,0.590166878 C51.4020544,0.315227511 51.1777886,0.0898316742 50.9007223,0.0898316742 L47.8350302,0.0898316742 C47.6586658,0.0898316742 47.4997202,0.16006371 47.3734346,0.27167276 C47.2264642,0.406692489 47.13175,0.600511131 47.13175,0.817740452 L47.13175,1.25601014 C47.13175,1.47160615 47.2248312,1.66324706 47.3701685,1.79608905 C47.4931882,1.91150914 47.6559442,1.98446335 47.8350302,1.98446335 C47.8350302,1.98446335 49.0222239,1.97956344 49.0244012,1.98228561 L49.0358322,15.6884214 C49.0075268,15.9639052 49.2083863,16.2127117 49.4838195,16.2415667 L49.559482,16.2638885 L49.559482,16.2638885 Z" id="Fill-6" fill="#FFFFFF" mask="url(#mask-2)"></path>
                            <path d="M4.72917844,14.6882954 C3.21102942,14.6882954 2.51972456,13.4399073 2.51972456,11.2088152 C2.51972456,8.22095928 3.81415208,7.05968072 5.70843627,7.05968072 C6.28706388,7.05968072 6.86514715,7.12773502 7.46609248,7.25948814 L7.46609248,10.8494885 C7.4143807,12.7027432 6.44274355,14.6882954 4.72917844,14.6882954 Z M11.5317271,14.8200485 C11.4038085,14.682851 11.2247224,14.5973748 11.028762,14.5973748 L9.82088367,14.5973748 L9.82088367,0.615755294 C9.82088367,0.340815928 9.59552918,0.116508959 9.3200959,0.117597828 L6.30502692,0.127942081 C6.12975119,0.127942081 5.96917251,0.197085249 5.84506423,0.310872036 C5.69863824,0.44534733 5.60446837,0.638621538 5.60446837,0.85585086 L5.60446837,1.29303167 C5.60446837,1.50699439 5.69646091,1.69863529 5.84070956,1.83202172 C5.96536217,1.94744181 6.12811819,2.02039602 6.30502692,2.02039602 C6.30502692,2.02039602 7.46609248,2.0263848 7.46609248,2.02039602 L7.46609248,5.25324742 C6.86514715,5.20969267 6.33169931,5.16396018 5.79770713,5.16396018 C2.20836521,5.16396018 0,7.61881484 0,11.4320333 C0,14.6441962 1.36138067,16.6509814 4.08142034,16.6509814 C5.60773438,16.6509814 6.79601667,15.9100062 7.46609248,14.7911935 L7.46609248,15.9884047 C7.46609248,16.2627996 7.69090264,16.4892843 7.96742458,16.4892843 L11.028762,16.4892843 C11.1860747,16.4892843 11.329779,16.4321187 11.4484439,16.3406538 C11.6188206,16.2067229 11.7320422,15.9971157 11.7320422,15.7608311 L11.7320422,15.3236503 C11.7320422,15.1271095 11.6552911,14.9496239 11.5317271,14.8200485 L11.5317271,14.8200485 Z" id="Fill-8" fill="#FFFFFF" mask="url(#mask-2)"></path>
                        </g>
                        <path d="M69.0472027,30.1017774 C68.2219916,30.1017774 67.5306867,30.7719761 67.5306867,31.5978831 C67.5306867,32.4221567 68.2219916,33.091811 69.0472027,33.091811 C69.8936429,33.091811 70.5860364,32.4221567 70.5860364,31.5978831 C70.5860364,30.7491099 69.8936429,30.1017774 69.0472027,30.1017774" id="Fill-10" fill="#FFFFFF"></path>
                        <path d="M70.2637904,35.2428713 C70.2637904,34.9684764 70.0378916,34.7419917 69.761914,34.7419917 L66.6945889,34.7419917 C66.5193131,34.7419917 66.3587345,34.8122237 66.2362592,34.9260105 C66.0871115,35.0572192 65.9913086,35.2526711 65.9913086,35.4715338 L65.9913086,35.9059924 C65.9913086,36.1221329 66.0849342,36.3132293 66.2302715,36.4493379 C66.3543798,36.5631247 66.5171358,36.6333567 66.6945889,36.6333567 C66.6945889,36.6333567 67.8605534,36.6355345 67.8638194,36.6333567 L67.8785165,45.2784304 C67.8801495,45.5539142 68.1044153,45.77931 68.3803929,45.77931 L69.7646356,45.77931 C70.0417019,45.77931 70.2665121,45.5539142 70.2665121,45.2784304 L70.2637904,35.2428713" id="Fill-11" fill="#FFFFFF"></path>
                        <path d="M44.2930454,30.1017774 C43.4678343,30.1017774 42.7748964,30.7719761 42.7748964,31.5978831 C42.7748964,32.4221567 43.4678343,33.091811 44.2930454,33.091811 C45.1411186,33.091811 45.8307905,32.4221567 45.8307905,31.5978831 C45.8307905,30.7491099 45.1411186,30.1017774 44.2930454,30.1017774" id="Fill-12" fill="#FFFFFF"></path>
                        <path d="M45.5101774,35.2428713 C45.5101774,34.9684764 45.2842786,34.7419917 45.009934,34.7419917 L41.9415202,34.7419917 C41.7651558,34.7419917 41.6062102,34.8122237 41.4837349,34.9260105 C41.3334986,35.0572192 41.23824,35.2526711 41.23824,35.4715338 L41.23824,35.9059924 C41.23824,36.1221329 41.3318656,36.3132293 41.4766585,36.4493379 C41.6018555,36.5631247 41.7635228,36.6333567 41.9415202,36.6333567 C41.9415202,36.6333567 43.1189158,36.6355345 43.1216375,36.6333567 L43.1254478,45.2784304 C43.1254478,45.5539142 43.3513467,45.77931 43.6273243,45.77931 L45.0110227,45.77931 C45.2864559,45.77931 45.5118104,45.5539142 45.5118104,45.2784304 L45.5101774,35.2428713" id="Fill-13" fill="#FFFFFF"></path>
                        <path d="M103.484527,38.0668525 C103.484527,36.1019888 102.682178,34.5198624 100.161909,34.5198624 C98.497334,34.5198624 97.2513523,35.295137 96.5595031,36.5005148 L96.5584144,29.9896239 C96.5584144,29.7146845 96.3341486,29.4892887 96.0570823,29.4892887 L92.9908459,29.4892887 C92.8150258,29.4892887 92.6549915,29.5595207 92.5303389,29.6711298 C92.3822799,29.8061495 92.2875657,29.9999681 92.2875657,30.2171975 L92.2875657,30.6554671 C92.2875657,30.8710632 92.3801025,31.0627041 92.5254399,31.1955461 C92.6495481,31.3109662 92.8123042,31.3839204 92.9908459,31.3839204 C92.9908459,31.3839204 94.1606208,31.3817426 94.1606208,31.3866425 L94.1736848,45.3263406 C94.1736848,45.6029133 94.400128,45.8283091 94.6750169,45.8283091 L96.0608927,45.8283091 C96.3357816,45.8283091 96.5605918,45.6029133 96.5605918,45.3263406 L96.5595031,40.1732691 C96.673269,38.0984297 97.8582853,36.5059591 99.4482865,36.5059591 C100.720396,36.5059591 101.098164,37.3084554 101.098164,38.6907743 L101.062783,45.3263406 C101.062783,45.6029133 101.287593,45.8283091 101.564659,45.8283091 L102.985917,45.8283091 C103.260261,45.8283091 103.485616,45.6029133 103.485616,45.3263406 L103.484527,38.0668525" id="Fill-14" fill="#FFFFFF"></path>
                        <path d="M88.7406818,34.7419917 L91.1433745,34.7419917 C91.4193521,34.7419917 91.6447066,34.9706541 91.6447066,35.2526711 L91.6447066,36.070956 C91.6447066,36.3507953 91.4193521,36.581091 91.1433745,36.581091 L88.7439479,36.581091 L88.7542902,41.9023928 C88.7542902,43.5536623 89.0874229,43.9990096 90.2038531,43.9990096 C90.5647469,43.9990096 90.9191087,43.9587214 91.2669384,43.8961115 C91.2669384,43.8961115 91.3877807,43.8770563 91.4286058,43.8803229 C91.5684998,43.8939338 91.6817213,43.9875765 91.6817213,44.1492735 L91.6838987,45.2484865 C91.7051277,45.5582697 91.5733988,45.7738657 91.2723818,45.8517198 L91.1956306,45.8718639 L91.1678695,45.8740416 C90.621902,45.9644177 90.0078926,46.0292054 89.4455951,46.0292054 C87.0826389,46.0292054 86.3679276,45.1134668 86.3679276,42.6379236 L86.3679276,36.581091 L84.746355,36.581091 C84.4714661,36.581091 84.2455673,36.3507953 84.2455673,36.070956 L84.2455673,35.2526711 C84.2455673,34.9706541 84.4714661,34.7419917 84.746355,34.7419917 L86.3679276,34.7419917 L86.3706493,31.532551 C86.3706493,31.3479877 86.4925802,31.191735 86.6602353,31.1405582 L88.2398941,30.7044662 C88.2681995,30.6968442 88.2970492,30.6946664 88.3269876,30.6946664 C88.5534308,30.6946664 88.7352385,30.8765075 88.7352385,31.1024478 L88.7406818,34.7419917" id="Fill-15" fill="#FFFFFF"></path>
                        <path d="M138.771558,45.42325 L134.64659,39.8052315 L138.438969,35.1301734 C138.613156,34.9189329 138.530417,34.7419917 138.25444,34.7419917 L136.334028,34.7419917 C135.836506,34.7419917 135.697156,34.9227439 135.531678,35.1432398 L132.244442,39.4840152 L132.242809,29.9896239 C132.242809,29.7146845 132.018543,29.4892887 131.743654,29.4892887 L128.675241,29.4892887 C128.498876,29.4892887 128.338842,29.5595207 128.216911,29.6711298 C128.067763,29.8061495 127.971416,29.9999681 127.971416,30.2171975 L127.971416,30.6554671 C127.971416,30.8710632 128.065586,31.0627041 128.210379,31.1955461 C128.335032,31.3109662 128.497243,31.3839204 128.675241,31.3839204 C128.675241,31.3839204 129.846104,31.3817426 129.846104,31.3866425 L129.859168,45.3263406 C129.859168,45.6029133 130.084523,45.8283091 130.359956,45.8283091 L131.743654,45.8283091 C132.020176,45.8283091 132.246075,45.6029133 132.246075,45.3263406 L132.244442,40.2168239 L135.754311,45.4123613 C135.908358,45.6410237 136.030289,45.8283091 136.535431,45.8283091 L138.566343,45.8283091 C138.841777,45.8283091 138.933225,45.6453792 138.771558,45.42325" id="Fill-16" fill="#FFFFFF"></path>
                        <path d="M34.0263518,43.9108112 C33.3345026,43.9108112 32.4766313,43.9064557 32.2991783,43.9064557 L32.2991783,38.9994686 C32.6480967,38.9815023 33.3867587,38.9815023 33.6251772,38.9815023 C35.7420942,38.9815023 37.2820166,39.6054241 37.2820166,41.3225701 C37.2820166,42.8393643 36.234717,43.9108112 34.0263518,43.9108112 Z M34.1613467,32.6453748 C36.3011258,32.6453748 36.9935193,33.5159254 36.9935193,34.7419917 C36.9935193,36.2593303 35.811769,37.1734357 33.5582241,37.1734357 C33.0596136,37.1734357 32.6889218,37.1734357 32.2991783,37.1511138 L32.2991783,32.648097 C32.4945944,32.6410194 33.5565911,32.6453748 34.1613467,32.6453748 Z M36.9701129,37.8436344 L36.9701129,37.7989908 C38.507858,37.2627229 39.5344729,35.9016369 39.5344729,34.3646986 C39.5344729,32.0432304 37.8405038,30.706644 34.5625213,30.706644 C33.6083028,30.706644 30.3226996,30.7142661 30.3226996,30.7142661 C30.0461776,30.7142661 29.8191901,30.9407508 29.8191901,31.216779 L29.8191901,45.3764286 C29.8191901,45.6530013 30.0461776,45.8800304 30.3226996,45.8800304 C30.3226996,45.8800304 33.0225989,45.8952746 33.9365366,45.8952746 C38.5530378,45.8952746 39.8469209,43.2400681 39.8469209,41.2779265 C39.8469209,39.7170331 38.9324389,38.2209274 36.9701129,37.8436344 L36.9701129,37.8436344 Z" id="Fill-17" fill="#FFFFFF"></path>
                        <g id="Group" transform="translate(137.716637, 0.000000)">
                            <path d="M36.6788939,6.80216326 C34.3518638,-3.60197792 19.2231741,0.547700995 9.69242072,5.69587258 C-1.4185358,11.7009839 -0.254204228,17.6135414 1.66185333,21.83563 C3.43856126,25.7550132 9.41862045,35.8711486 20.6738256,35.7372177 C31.584467,35.6065535 38.983062,18.180842 36.6788939,6.80216326" id="Fill-29" fill="#FF7320"></path>
                            <path d="M23.6878059,18.6240116 C23.6878059,20.7750719 21.9421251,22.5156286 19.7947254,22.5156286 C17.6451483,22.5156286 15.9027334,20.7750719 15.9027334,18.6240116 C15.9027334,16.4783957 17.6451483,14.7323946 19.7947254,14.7323946 C21.9421251,14.7323946 23.6878059,16.4783957 23.6878059,18.6240116" id="Fill-31" fill="#FFFFFE"></path>
                            <path d="M11.7979067,12.9504608 C11.7979067,13.4458961 11.9851578,13.8983211 12.3563939,14.2979359 C12.7357951,14.691562 13.1816051,14.8919138 13.6796712,14.8919138 C14.1614073,14.8919138 14.5990522,14.6991841 14.9817194,14.3191689 C14.9817194,14.3191689 19.3750434,10.011604 19.7789397,9.61525575 C20.1822915,10.011604 24.5756156,14.3191689 24.5756156,14.3191689 C24.9577384,14.6991841 25.3953834,14.8919138 25.8776638,14.8919138 C26.3757299,14.8919138 26.8204512,14.691562 27.2003967,14.2979359 C27.5710885,13.8983211 27.7588839,13.4458961 27.7588839,12.9504608 C27.7588839,12.4702697 27.5743545,12.0417998 27.2112834,11.6775732 L21.2072735,5.6724619 C21.2083621,5.66810643 21.2094508,5.66320652 21.2094508,5.66320652 C20.8066433,5.24725864 20.3259959,5.0360181 19.78275,5.0360181 L19.7789397,5.0360181 L19.7740406,5.0360181 C19.2307948,5.0360181 18.7506917,5.24725864 18.3473398,5.66320652 C18.3473398,5.66320652 18.3484285,5.66810643 18.3495172,5.6724619 L12.3455072,11.6775732 C11.9824361,12.0417998 11.7979067,12.4702697 11.7979067,12.9504608" id="Fill-32" fill="#F2B186"></path>
                            <path d="M27.7588839,24.288307 C27.7588839,23.7928717 27.5710885,23.3409911 27.2003967,22.9408319 C26.8204512,22.5466614 26.3757299,22.3463095 25.8776638,22.3463095 C25.3953834,22.3463095 24.9577384,22.5395837 24.5756156,22.9201433 C24.5756156,22.9201433 20.1822915,27.2271638 19.7789397,27.6240565 C19.3750434,27.2271638 14.9822637,22.9201433 14.9822637,22.9201433 C14.5985079,22.5395837 14.1614073,22.3463095 13.6796712,22.3463095 C13.1816051,22.3463095 12.7357951,22.5466614 12.3563939,22.9408319 C11.9851578,23.3409911 11.7979067,23.7928717 11.7979067,24.288307 C11.7979067,24.7684981 11.9818918,25.196968 12.3460516,25.5606501 L18.3495172,31.5657614 C18.3484285,31.5712058 18.3473398,31.5755613 18.3473398,31.5755613 C18.7506917,31.9915091 19.2307948,32.2022052 19.7740406,32.2022052 L19.7789397,32.2022052 L19.78275,32.2022052 C20.3259959,32.2022052 20.8066433,31.9915091 21.2094508,31.5755613 C21.2094508,31.5755613 21.2083621,31.5712058 21.2072735,31.5657614 L27.2112834,25.5606501 C27.5743545,25.196968 27.7588839,24.7684981 27.7588839,24.288307" id="Fill-33" fill="#FFFFFE"></path>
                        </g>
                    </g>
                </g>
            </g>
        </g>
    </g>
</svg>