<svg width="174.81692px" height="45.6878772px" viewBox="0 0 174.81692 45.6878772" version="1.1" xmlns="http://www.w3.org/2000/svg" xmlns:xlink="http://www.w3.org/1999/xlink">
    <defs>
        <polygon id="path-zbyi-an3yt-1" points="7.55415917e-18 3.868439e-15 7.55415917e-18 16.5611497 58.8338538 16.5611497 58.8338538 0 0 0"></polygon>
    </defs>
    <g id="Community-Crowd" stroke="none" stroke-width="1" fill="none" fill-rule="evenodd">
        <g id="Community-crowd-Copy" transform="translate(-831, -598)">
            <g id="Zoetermeer_logolang_RGB" transform="translate(831, 598)">
                <text id="Een-initiatief-van:" font-family="OpenSans-Regular, Open Sans" font-size="12" font-weight="normal" letter-spacing="0.6" fill="#505450">
                    <tspan x="0" y="18.6374389">Een initiatief van:</tspan>
                </text>
                <g id="Group-2" transform="translate(0.0327, -0)">
                    <path d="M78.0450526,43.6364485 C76.1943152,43.6364485 75.21288,42.3200061 75.21288,39.8215967 C75.21288,37.2812658 76.6183518,36.1657198 78.0673703,36.1657198 C79.9638318,36.1657198 80.8777695,37.5033951 80.8777695,39.868418 C80.8777695,42.432704 79.584975,43.6364485 78.0450526,43.6364485 Z M78.2698627,34.1573013 C74.900432,34.1573013 72.7383352,36.7215873 72.7383352,40.0682255 C72.7383352,43.9707312 74.745841,45.6878772 77.8224198,45.6878772 C81.1009467,45.6878772 83.3316296,43.1241357 83.3316296,39.7088988 C83.3316296,35.8074819 81.2353973,34.1573013 78.2698627,34.1573013 L78.2698627,34.1573013 Z" id="Fill-1" fill="#3F433F"></path>
                    <path d="M108.535952,38.3951786 C108.737355,36.9001618 109.674155,35.9201799 111.012129,35.9201799 C112.416512,35.9201799 113.286903,36.8778399 113.241724,38.3951786 L108.535952,38.3951786 Z M114.629777,43.2455446 C113.778982,43.590716 112.757266,43.79379 111.770932,43.79379 C109.561478,43.79379 108.425996,42.631967 108.490772,40.0682255 L115.096271,40.0616923 C115.372793,40.0616923 115.570931,39.8586182 115.599781,39.5586349 L115.611212,39.474792 C115.623187,39.2853288 115.627542,39.1111098 115.627542,38.9537683 C115.627542,36.3197947 114.266706,34.1573013 111.1014,34.1573013 C107.867509,34.1573013 106.039089,36.6557107 106.039089,40.0001712 C106.039089,43.9048546 107.932285,45.6878772 111.390986,45.6878772 C112.560761,45.6878772 113.731625,45.507125 114.74572,45.1570537 L114.818661,45.1309208 C115.110968,45.0296561 115.218202,44.8075268 115.165402,44.5086323 L115.041838,43.4497075 L115.041838,43.4475297 C115.011355,43.2727663 114.834991,43.1655127 114.643385,43.242278 L114.629777,43.2455446 L114.629777,43.2455446 Z" id="Fill-2" fill="#3F433F"></path>
                    <path d="M120.023588,38.3951786 C120.224991,36.9001618 121.161247,35.9201799 122.499221,35.9201799 C123.904148,35.9201799 124.774539,36.8778399 124.728815,38.3951786 L120.023588,38.3951786 Z M126.116868,43.2455446 C125.266618,43.590716 124.244902,43.79379 123.257479,43.79379 C121.048569,43.79379 119.913632,42.631967 119.978408,40.0682255 L126.583363,40.0616923 C126.859341,40.0616923 127.058023,39.8586182 127.086328,39.5586349 L127.098304,39.474792 C127.10919,39.2853288 127.114634,39.1111098 127.114634,38.9537683 C127.114634,36.3197947 125.753797,34.1573013 122.589036,34.1573013 C119.354056,34.1573013 117.526181,36.6557107 117.526181,40.0001712 C117.526181,43.9048546 119.419376,45.6878772 122.878622,45.6878772 C124.047308,45.6878772 125.219261,45.507125 126.232267,45.1570537 L126.306297,45.1309208 C126.598604,45.0296561 126.705294,44.8075268 126.651949,44.5086323 L126.529474,43.4497075 L126.529474,43.4475297 C126.498447,43.2727663 126.322082,43.1655127 126.130477,43.242278 L126.116868,43.2455446 L126.116868,43.2455446 Z" id="Fill-3" fill="#3F433F"></path>
                    <path d="M15.2729384,38.3951786 C15.4748865,36.9001618 16.4111419,35.9201799 17.7496605,35.9201799 C19.1534993,35.9201799 20.0244345,36.8778399 19.9792548,38.3951786 L15.2729384,38.3951786 Z M21.3673078,43.2455446 C20.5170573,43.590716 19.494797,43.79379 18.5084628,43.79379 C16.299009,43.79379 15.1629828,42.631967 15.2283029,40.0682255 L21.8338025,40.0616923 C22.1097801,40.0616923 22.3084622,39.8586182 22.337312,39.5586349 L22.3481987,39.474792 C22.3596297,39.2853288 22.3656174,39.1111098 22.3656174,38.9537683 C22.3656174,36.3197947 21.0036924,34.1573013 17.838387,34.1573013 C14.6050399,34.1573013 12.7760759,36.6557107 12.7760759,40.0001712 C12.7760759,43.9048546 14.67036,45.6878772 18.1285173,45.6878772 C19.2982923,45.6878772 20.4686115,45.507125 21.4821624,45.1570537 L21.5556476,45.1309208 C21.8484996,45.0296561 21.9557335,44.8075268 21.9018443,44.5086323 L21.7793691,43.4497075 L21.7793691,43.4475297 C21.7494307,43.2727663 21.5719776,43.1655127 21.3803719,43.242278 L21.3673078,43.2455446 L21.3673078,43.2455446 Z" id="Fill-4" fill="#3F433F"></path>
                    <path d="M63.9827142,29.6270628 C63.9827142,29.3521234 63.7568154,29.1267275 63.4813821,29.1267275 L60.414057,29.1267275 C60.2387813,29.1267275 60.0787469,29.1969596 59.955183,29.3085686 C59.8065797,29.4435884 59.7107768,29.637407 59.7107768,29.8546363 L59.7107768,30.292906 C59.7107768,30.508502 59.803858,30.7001429 59.950284,30.8329849 C60.0738479,30.948405 60.2360596,31.0213592 60.414057,31.0213592 C60.414057,31.0213592 61.5849206,31.0191815 61.5849206,31.0240814 L61.5653245,44.9637795 C61.5664132,45.2403522 61.7934007,45.465748 62.0666566,45.465748 L63.4846481,45.465748 C63.7589927,45.465748 63.9832585,45.2403522 63.9832585,44.9637795 L63.9827142,29.6270628" id="Fill-5" fill="#3F433F"></path>
                    <g id="Group-9" transform="translate(0, 29.1267)">
                        <mask id="mask-zbyi-an3yt-2" fill="white">
                            <use xlink:href="#path-zbyi-an3yt-1"></use>
                        </mask>
                        <g id="Clip-7"></g>
                        <path d="M53.1450136,14.62133 C52.4335684,14.62133 51.8745368,14.5543645 51.3851801,14.3981119 L51.3851801,10.9649086 C51.3851801,9.08878769 52.3437532,7.01667041 54.1275375,7.01667041 C55.6211914,7.01667041 56.3353583,8.24273665 56.3353583,10.4700177 C56.3353583,13.4616847 55.0197018,14.62133 53.1450136,14.62133 Z M49.526822,16.1740568 C50.5681339,16.4016304 51.6099902,16.5165061 52.9441542,16.5165061 C56.6478064,16.5165061 58.8338538,14.0866954 58.8338538,10.2489774 C58.8338538,6.90397249 57.3832023,5.03057376 54.7518892,5.03057376 C53.2451712,5.03057376 52.0078988,5.7769933 51.372116,6.98128217 L51.3710274,0.500335204 C51.3693944,0.225395837 51.1451285,0 50.8680623,0 L47.8023702,0 C47.6260058,0 47.4670601,0.0702320362 47.3407745,0.181841086 C47.1938042,0.316860814 47.0990899,0.510679457 47.0990899,0.727908778 L47.0990899,1.16617846 C47.0990899,1.38177448 47.1921712,1.57341538 47.3375085,1.70625738 C47.4605281,1.82167747 47.6232841,1.89463167 47.8023702,1.89463167 C47.8023702,1.89463167 48.9895638,1.88973176 48.9917411,1.89245394 L49.0031721,15.5985897 C48.9748668,15.8740735 49.1757262,16.12288 49.4511595,16.151735 L49.526822,16.1740568 L49.526822,16.1740568 Z" id="Fill-6" fill="#3F433F" mask="url(#mask-zbyi-an3yt-2)"></path>
                        <path d="M4.69651837,14.5984637 C3.17836935,14.5984637 2.48706449,13.3500757 2.48706449,11.1189835 C2.48706449,8.1311276 3.78149201,6.96984905 5.67577619,6.96984905 C6.2544038,6.96984905 6.83248708,7.03790335 7.43343241,7.16965647 L7.43343241,10.7596568 C7.38172062,12.6129115 6.41008348,14.5984637 4.69651837,14.5984637 Z M11.499067,14.7302168 C11.3711484,14.5930194 11.1920624,14.5075432 10.9961019,14.5075432 L9.7882236,14.5075432 L9.7882236,0.52592362 C9.7882236,0.250984253 9.56286911,0.0266772851 9.28743583,0.0277622062 L6.27236684,0.0381104072 C6.09709112,0.0381104072 5.93651244,0.107253575 5.81240416,0.221040362 C5.66597817,0.355515656 5.5718083,0.548789864 5.5718083,0.766019186 L5.5718083,1.2032 C5.5718083,1.41716271 5.66380083,1.60880362 5.80804948,1.74219005 C5.93270209,1.85761014 6.09545812,1.93056434 6.27236684,1.93056434 C6.27236684,1.93056434 7.43343241,1.93655312 7.43343241,1.93056434 L7.43343241,5.16341575 C6.83248708,5.119861 6.29903924,5.07412851 5.76504706,5.07412851 C2.17570514,5.07412851 -0.0326600721,7.52898317 -0.0326600721,11.3422016 C-0.0326600721,14.5543645 1.3287206,16.5611497 4.04876027,16.5611497 C5.5750743,16.5611497 6.76335659,15.8201745 7.43343241,14.7013618 L7.43343241,15.898573 C7.43343241,16.172968 7.65824257,16.3994527 7.93476451,16.3994527 L10.9961019,16.3994527 C11.1534146,16.3994527 11.2971189,16.3422871 11.4157839,16.2508221 C11.5861606,16.1168912 11.6993822,15.907284 11.6993822,15.6709995 L11.6993822,15.2338186 C11.6993822,15.0372778 11.622631,14.8597922 11.499067,14.7302168 L11.499067,14.7302168 Z" id="Fill-8" fill="#3F433F" mask="url(#mask-zbyi-an3yt-2)"></path>
                    </g>
                    <path d="M69.0145426,29.7392162 C68.1893315,29.7392162 67.4980266,30.409415 67.4980266,31.2353219 C67.4980266,32.0595956 68.1893315,32.7292499 69.0145426,32.7292499 C69.8609828,32.7292499 70.5533764,32.0595956 70.5533764,31.2353219 C70.5533764,30.3865487 69.8609828,29.7392162 69.0145426,29.7392162" id="Fill-10" fill="#3F433F"></path>
                    <path d="M70.2311303,34.8803102 C70.2311303,34.6059152 70.0052315,34.3794305 69.7292539,34.3794305 L66.6619288,34.3794305 C66.4866531,34.3794305 66.3260744,34.4496626 66.2035991,34.5634494 C66.0544514,34.694658 65.9586486,34.89011 65.9586486,35.1089726 L65.9586486,35.5434313 C65.9586486,35.7595717 66.0522741,35.9506682 66.1976114,36.0867768 C66.3217197,36.2005636 66.4844757,36.2707956 66.6619288,36.2707956 C66.6619288,36.2707956 67.8278934,36.2729733 67.8311594,36.2707956 L67.8458564,44.9158693 C67.8474894,45.1913531 68.0717552,45.4167489 68.3477328,45.4167489 L69.7319756,45.4167489 C70.0090418,45.4167489 70.233852,45.1913531 70.233852,44.9158693 L70.2311303,34.8803102" id="Fill-11" fill="#3F433F"></path>
                    <path d="M44.2603853,29.7392162 C43.4351742,29.7392162 42.7422363,30.409415 42.7422363,31.2353219 C42.7422363,32.0595956 43.4351742,32.7292499 44.2603853,32.7292499 C45.1084586,32.7292499 45.7981304,32.0595956 45.7981304,31.2353219 C45.7981304,30.3865487 45.1084586,29.7392162 44.2603853,29.7392162" id="Fill-12" fill="#3F433F"></path>
                    <path d="M45.4775174,34.8803102 C45.4775174,34.6059152 45.2516185,34.3794305 44.9772739,34.3794305 L41.9088602,34.3794305 C41.7324958,34.3794305 41.5735501,34.4496626 41.4510748,34.5634494 C41.3008385,34.694658 41.2055799,34.89011 41.2055799,35.1089726 L41.2055799,35.5434313 C41.2055799,35.7595717 41.2992055,35.9506682 41.4439985,36.0867768 C41.5691954,36.2005636 41.7308628,36.2707956 41.9088602,36.2707956 C41.9088602,36.2707956 43.0862558,36.2729733 43.0889774,36.2707956 L43.0927878,44.9158693 C43.0927878,45.1913531 43.3186866,45.4167489 43.5946642,45.4167489 L44.9783626,45.4167489 C45.2537959,45.4167489 45.4791504,45.1913531 45.4791504,44.9158693 L45.4775174,34.8803102" id="Fill-13" fill="#3F433F"></path>
                    <path d="M103.451867,37.7042913 C103.451867,35.7394276 102.649518,34.1573013 100.129249,34.1573013 C98.464674,34.1573013 97.2186922,34.9325759 96.526843,36.1379536 L96.5257544,29.6270628 C96.5257544,29.3521234 96.3014885,29.1267275 96.0244223,29.1267275 L92.9581858,29.1267275 C92.7823658,29.1267275 92.6223314,29.1969596 92.4976788,29.3085686 C92.3496198,29.4435884 92.2549056,29.637407 92.2549056,29.8546363 L92.2549056,30.292906 C92.2549056,30.508502 92.3474425,30.7001429 92.4927798,30.8329849 C92.6168881,30.948405 92.7796441,31.0213592 92.9581858,31.0213592 C92.9581858,31.0213592 94.1279607,31.0191815 94.1279607,31.0240814 L94.1410248,44.9637795 C94.1410248,45.2403522 94.3674679,45.465748 94.6423569,45.465748 L96.0282326,45.465748 C96.3031215,45.465748 96.5279317,45.2403522 96.5279317,44.9637795 L96.526843,39.810708 C96.640609,37.7358685 97.8256252,36.143398 99.4156264,36.143398 C100.687736,36.143398 101.065504,36.9458942 101.065504,38.3282132 L101.030123,44.9637795 C101.030123,45.2403522 101.254933,45.465748 101.531999,45.465748 L102.953257,45.465748 C103.227601,45.465748 103.452956,45.2403522 103.452956,44.9637795 L103.451867,37.7042913" id="Fill-14" fill="#3F433F"></path>
                    <path d="M88.7080218,34.3794305 L91.1107144,34.3794305 C91.386692,34.3794305 91.6120465,34.608093 91.6120465,34.89011 L91.6120465,35.7083949 C91.6120465,35.9882342 91.386692,36.2185299 91.1107144,36.2185299 L88.7112878,36.2185299 L88.7216301,41.5398316 C88.7216301,43.1911011 89.0547629,43.6364485 90.171193,43.6364485 C90.5320868,43.6364485 90.8864486,43.5961603 91.2342784,43.5335504 C91.2342784,43.5335504 91.3551206,43.5144951 91.3959457,43.5177618 C91.5358397,43.5313726 91.6490613,43.6250153 91.6490613,43.7867123 L91.6512386,44.8859254 C91.6724677,45.1957085 91.5407387,45.4113046 91.2397217,45.4891587 L91.1629705,45.5093028 L91.1352095,45.5114805 C90.5892419,45.6018566 89.9752326,45.6666443 89.412935,45.6666443 C87.0499788,45.6666443 86.3352675,44.7509056 86.3352675,42.2753625 L86.3352675,36.2185299 L84.713695,36.2185299 C84.438806,36.2185299 84.2129072,35.9882342 84.2129072,35.7083949 L84.2129072,34.89011 C84.2129072,34.608093 84.438806,34.3794305 84.713695,34.3794305 L86.3352675,34.3794305 L86.3379892,31.1699898 C86.3379892,30.9854266 86.4599201,30.8291739 86.6275752,30.777997 L88.207234,30.3419051 C88.2355394,30.334283 88.2643891,30.3321053 88.2943275,30.3321053 C88.5207707,30.3321053 88.7025784,30.5139464 88.7025784,30.7398866 L88.7080218,34.3794305" id="Fill-15" fill="#3F433F"></path>
                    <path d="M138.738898,45.0606888 L134.61393,39.4426704 L138.406309,34.7676123 C138.580496,34.5563717 138.497757,34.3794305 138.22178,34.3794305 L136.301367,34.3794305 C135.803846,34.3794305 135.664496,34.5601828 135.499018,34.7806787 L132.211782,39.1214541 L132.210149,29.6270628 C132.210149,29.3521234 131.985883,29.1267275 131.710994,29.1267275 L128.642581,29.1267275 C128.466216,29.1267275 128.306182,29.1969596 128.184251,29.3085686 C128.035103,29.4435884 127.938756,29.637407 127.938756,29.8546363 L127.938756,30.292906 C127.938756,30.508502 128.032926,30.7001429 128.177719,30.8329849 C128.302371,30.948405 128.464583,31.0213592 128.642581,31.0213592 C128.642581,31.0213592 129.813444,31.0191815 129.813444,31.0240814 L129.826508,44.9637795 C129.826508,45.2403522 130.051863,45.465748 130.327296,45.465748 L131.710994,45.465748 C131.987516,45.465748 132.213415,45.2403522 132.213415,44.9637795 L132.211782,39.8542628 L135.721651,45.0498001 C135.875698,45.2784626 135.997629,45.465748 136.502771,45.465748 L138.533683,45.465748 C138.809117,45.465748 138.900565,45.282818 138.738898,45.0606888" id="Fill-16" fill="#3F433F"></path>
                    <path d="M33.9936917,43.5482501 C33.3018425,43.5482501 32.4439713,43.5438946 32.2665182,43.5438946 L32.2665182,38.6369075 C32.6154366,38.6189411 33.3540986,38.6189411 33.5925171,38.6189411 C35.7094341,38.6189411 37.2493565,39.2428629 37.2493565,40.960009 C37.2493565,42.4768032 36.2020569,43.5482501 33.9936917,43.5482501 Z M34.1286867,32.2828137 C36.2684657,32.2828137 36.9608592,33.1533643 36.9608592,34.3794305 C36.9608592,35.8967692 35.779109,36.8108745 33.525564,36.8108745 C33.0269536,36.8108745 32.6562617,36.8108745 32.2665182,36.7885527 L32.2665182,32.2855359 C32.4619343,32.2784582 33.523931,32.2828137 34.1286867,32.2828137 Z M36.9374529,37.4810732 L36.9374529,37.4364296 C38.4751979,36.9001618 39.5018128,35.5390758 39.5018128,34.0021375 C39.5018128,31.6806693 37.8078438,30.3440828 34.5298612,30.3440828 C33.5756428,30.3440828 30.2900395,30.3517049 30.2900395,30.3517049 C30.0135176,30.3517049 29.7865301,30.5781896 29.7865301,30.8542179 L29.7865301,45.0138675 C29.7865301,45.2904401 30.0135176,45.5174693 30.2900395,45.5174693 C30.2900395,45.5174693 32.9899388,45.5327134 33.9038765,45.5327134 C38.5203777,45.5327134 39.8142609,42.8775069 39.8142609,40.9153654 C39.8142609,39.354472 38.8997789,37.8583663 36.9374529,37.4810732 L36.9374529,37.4810732 Z" id="Fill-17" fill="#3F433F"></path>
                    <g id="Group" transform="translate(138.1042, 0)">
                        <path d="M36.2586436,6.43960212 C33.9316134,-3.96453906 18.8029237,0.185139854 9.27217034,5.33331144 C-1.83878618,11.3384228 -0.674454612,17.2509802 1.24160295,21.4730689 C3.01831087,25.3924521 8.99837007,35.5085875 20.2535752,35.3746566 C31.1642167,35.2439923 38.5628117,17.8182808 36.2586436,6.43960212" id="Fill-29" fill="#FF7320"></path>
                        <path d="M23.2675556,18.2614504 C23.2675556,20.4125107 21.5218747,22.1530675 19.374475,22.1530675 C17.2248979,22.1530675 15.482483,20.4125107 15.482483,18.2614504 C15.482483,16.1158345 17.2248979,14.3698334 19.374475,14.3698334 C21.5218747,14.3698334 23.2675556,16.1158345 23.2675556,18.2614504" id="Fill-31" fill="#FFFFFE"></path>
                        <path d="M11.3776563,12.5878997 C11.3776563,13.083335 11.5649074,13.5357599 11.9361436,13.9353748 C12.3155447,14.3290008 12.7613547,14.5293527 13.2594208,14.5293527 C13.7411569,14.5293527 14.1788018,14.3366229 14.561469,13.9566077 C14.561469,13.9566077 18.954793,9.64904284 19.3586893,9.25269461 C19.7620412,9.64904284 24.1553652,13.9566077 24.1553652,13.9566077 C24.537488,14.3366229 24.975133,14.5293527 25.4574134,14.5293527 C25.9554795,14.5293527 26.4002008,14.3290008 26.7801463,13.9353748 C27.1508381,13.5357599 27.3386335,13.083335 27.3386335,12.5878997 C27.3386335,12.1077085 27.1541041,11.6792387 26.791033,11.3150121 L20.7870231,5.30990076 C20.7881118,5.30554528 20.7892004,5.30064537 20.7892004,5.30064537 C20.3863929,4.8846975 19.9057455,4.67345696 19.3624996,4.67345696 C19.3608666,4.67345696 19.3597779,4.67345696 19.3586893,4.67345696 C19.3565119,4.67345696 19.3554233,4.67345696 19.3537903,4.67345696 C18.8105444,4.67345696 18.3304413,4.8846975 17.9270894,5.30064537 C17.9270894,5.30064537 17.9281781,5.30554528 17.9292668,5.30990076 L11.9252569,11.3150121 C11.5621857,11.6792387 11.3776563,12.1077085 11.3776563,12.5878997" id="Fill-32" fill="#F2B186"></path>
                        <path d="M26.7801463,22.5782707 C26.4002008,22.1841002 25.9554795,21.9837484 25.4574134,21.9837484 C24.975133,21.9837484 24.537488,22.1770226 24.1553652,22.5575822 C24.1553652,22.5575822 19.7620412,26.8646027 19.3586893,27.2614953 C18.954793,26.8646027 14.5620133,22.5575822 14.5620133,22.5575822 C14.1782575,22.1770226 13.7411569,21.9837484 13.2594208,21.9837484 C12.7613547,21.9837484 12.3155447,22.1841002 11.9361436,22.5782707 C11.5649074,22.97843 11.3776563,23.4303105 11.3776563,23.9257458 C11.3776563,24.405937 11.5616414,24.8344068 11.9258012,25.198089 L17.9292668,31.2032003 C18.3304413,31.628948 18.8105444,31.8396441 19.3537903,31.8396441 C19.9057455,31.8396441 20.3863929,31.628948 20.7892004,31.2130001 C20.7892004,31.2130001 22.7898113,29.2080297 26.791033,25.198089 C27.1541041,24.8344068 27.3386335,24.405937 27.3386335,23.9257458 C27.3386335,23.4303105 27.1508381,22.97843 26.7801463,22.5782707 Z" id="Fill-33" fill="#FFFFFE"></path>
                    </g>
                </g>
            </g>
        </g>
    </g>
</svg>