<?xml version="1.0" encoding="UTF-8"?>
<svg width="29px" height="28px" viewBox="0 0 29 28" version="1.1" xmlns="http://www.w3.org/2000/svg" xmlns:xlink="http://www.w3.org/1999/xlink">
    <!-- Generator: Sketch 46.2 (44496) - http://www.bohemiancoding.com/sketch -->
    <title>Group</title>
    <desc>Created with Sketch.</desc>
    <defs></defs>
    <g id="Kenniscloud" stroke="none" stroke-width="1" fill="none" fill-rule="evenodd">
        <g id="Kennisgroep/Verdieping-Copy-4" transform="translate(-808.000000, -450.000000)">
            <g id="Group-6-Copy" transform="translate(768.000000, 421.000000)">
                <g id="Group-5-Copy">
                    <g id="Group-7">
                        <g id="Group" transform="translate(40.256194, 29.024993)">
                            <path d="M27.634529,5.08030073 C25.8609828,-3.12768558 14.3306503,0.146059666 7.06678561,4.20753107 C-1.40143108,8.94505535 -0.514035654,13.6095625 0.94628782,16.9404329 C2.30040595,20.0324943 6.8581087,28.0132684 15.4362645,27.9076083 C23.751811,27.8045253 29.390651,14.0571146 27.634529,5.08030073" id="Fill-29" fill="#FF7320"></path>
                            <path d="M17.891642,14.5124967 C17.891642,15.7465992 16.8886617,16.7451885 15.654874,16.7451885 C14.4198353,16.7451885 13.4187315,15.7465992 13.4187315,14.5124967 C13.4187315,13.2815176 14.4198353,12.2798049 15.654874,12.2798049 C16.8886617,12.2798049 17.891642,13.2815176 17.891642,14.5124967" id="Fill-31" fill="#FFFFFE"></path>
                            <path d="M10.0640486,10.9603917 C10.0640486,11.2970899 10.1821181,11.6045584 10.4161977,11.876137 C10.6554256,12.1436456 10.936527,12.2798049 11.2505781,12.2798049 C11.5543323,12.2798049 11.8302854,12.1488255 12.0715727,11.8905669 C12.0715727,11.8905669 14.8417431,8.96314201 15.0964162,8.6937834 C15.350746,8.96314201 18.1209164,11.8905669 18.1209164,11.8905669 C18.3618605,12.1488255 18.6378135,12.2798049 18.941911,12.2798049 C19.2559621,12.2798049 19.536377,12.1436456 19.7759482,11.876137 C20.0096846,11.6045584 20.1280972,11.2970899 20.1280972,10.9603917 C20.1280972,10.6340534 20.0117439,10.3428649 19.7828127,10.0953362 L15.997039,6.01425725 C15.9977255,6.01129726 15.9984119,6.00796728 15.9984119,6.00796728 C15.7444253,5.72528874 15.4413575,5.58172948 15.0988187,5.58172948 L15.0964162,5.58172948 L15.0933271,5.58172948 C14.7507884,5.58172948 14.4480638,5.72528874 14.1937339,6.00796728 C14.1937339,6.00796728 14.1944204,6.01129726 14.1951068,6.01425725 L10.4093331,10.0953362 C10.180402,10.3428649 10.0640486,10.6340534 10.0640486,10.9603917" id="Fill-32" fill="#FFFFFF"></path>
                            <path d="M20.1280972,18.0649716 C20.1280972,17.7282734 20.0096846,17.421175 19.7759482,17.1492264 C19.536377,16.8813477 19.2559621,16.7451885 18.941911,16.7451885 C18.6378135,16.7451885 18.3618605,16.8765378 18.1209164,17.1351664 C18.1209164,17.1351664 15.350746,20.0622213 15.0964162,20.3319499 C14.8417431,20.0622213 12.0719159,17.1351664 12.0719159,17.1351664 C11.8299422,16.8765378 11.5543323,16.7451885 11.2505781,16.7451885 C10.936527,16.7451885 10.6554256,16.8813477 10.4161977,17.1492264 C10.1821181,17.421175 10.0640486,17.7282734 10.0640486,18.0649716 C10.0640486,18.3913099 10.1800587,18.6824984 10.4096764,18.9296572 L14.1951068,23.0107361 C14.1944204,23.014436 14.1937339,23.017396 14.1937339,23.017396 C14.4480638,23.3000746 14.7507884,23.4432638 15.0933271,23.4432638 L15.0964162,23.4432638 L15.0988187,23.4432638 C15.4413575,23.4432638 15.7444253,23.3000746 15.9984119,23.017396 C15.9984119,23.017396 15.9977255,23.014436 15.997039,23.0107361 L19.7828127,18.9296572 C20.0117439,18.6824984 20.1280972,18.3913099 20.1280972,18.0649716" id="Fill-33" fill="#FFFFFE"></path>
                        </g>
                    </g>
                </g>
            </g>
        </g>
    </g>
</svg>