<?xml version="1.0" encoding="UTF-8"?>
<svg width="52px" height="30px" viewBox="0 0 52 30" version="1.1" xmlns="http://www.w3.org/2000/svg" xmlns:xlink="http://www.w3.org/1999/xlink">
    <!-- Generator: Sketch 49 (51002) - http://www.bohemiancoding.com/sketch -->
    <title>Group</title>
    <desc>Created with Sketch.</desc>
    <defs></defs>
    <g id="Symbols" stroke="none" stroke-width="1" fill="none" fill-rule="evenodd" stroke-linecap="round">
        <g id="Navigatie-/-Menu-normaal" transform="translate(-48.000000, -19.000000)" stroke="white" stroke-width="2">
            <g id="Group" transform="translate(49.000000, 20.000000)">
                <path d="M4.73933284,27.9848441 C2.08828918,27.7805942 0,25.5372919 0,22.8 C0,20.2564935 1.80307635,18.1395089 4.185297,17.6886454 C4.15991237,17.4292481 4.14691623,17.1661612 4.14691623,16.9 C4.14691623,12.5369505 7.63916322,9 11.9470682,9 C14.0674913,9 15.9902989,9.85692297 17.3962998,11.2474918 C17.3838874,11.0999982 17.3775537,10.9507482 17.3775537,10.8 C17.3775537,7.9281193 19.676248,5.6 22.511831,5.6 C23.9954499,5.6 25.3320936,6.2373313 26.2694151,7.25641677 C27.150136,3.10881007 30.7916318,0 35.1500519,0 C40.1668526,0 44.2337731,4.1189803 44.2337731,9.2 C44.2337731,10.5027511 43.9664191,11.742259 43.4842489,12.8653131 C47.1615263,13.3552497 50,16.5419011 50,20.4 C50,24.5439131 46.725391,27.91321 42.6539955,27.99835 L42.6539955,28 L4.73933284,28 L4.73933284,27.9848441 Z" id="Combined-Shape" stroke-linejoin="round"></path>
                <path d="M40,21 C40,17.6862915 37.2184151,15 33.7871562,15 C31.8610076,15 30.1395826,15.8464976 29,17.1752939" id="Oval-3-Copy-5" stroke-linejoin="round" transform="translate(34.500000, 18.000000) rotate(10.000000) translate(-34.500000, -18.000000) "></path>
                <path d="M50,21 C50,16.581722 46.6276619,13 42.467672,13 C40.3147137,13 38.3727254,13.9593533 37,15.4975215" id="Oval-3-Copy-3" stroke-linejoin="round"></path>
                <path d="M9,20.1018123 C8.10103045,18.8296375 6.62598004,18 4.95875581,18 C2.2201106,18 0,20.2385763 0,23" id="Oval-3"></path>
            </g>
        </g>
    </g>
</svg>
