<?xml version="1.0" encoding="UTF-8"?>
<svg width="463px" height="271px" viewBox="0 0 463 271" version="1.1" xmlns="http://www.w3.org/2000/svg" xmlns:xlink="http://www.w3.org/1999/xlink">
    <!-- Generator: Sketch 49 (51002) - http://www.bohemiancoding.com/sketch -->
    <title>KC_Logo Copy 3</title>
    <desc>Created with Sketch.</desc>
    <defs>
        <linearGradient x1="-0.68003182%" y1="42.7957795%" x2="100.759878%" y2="38.6848478%" id="linearGradient-1">
            <stop stop-color="#00A2B6" offset="0%"></stop>
            <stop stop-color="#057F8E" offset="100%"></stop>
        </linearGradient>
        <rect id="path-2" x="0" y="0" width="463" height="271"></rect>
    </defs>
    <g id="Kenniscloud" stroke="none" stroke-width="1" fill="none" fill-rule="evenodd">
        <g id="KC_Logo-Copy-3">
            <mask id="mask-3" fill="white">
                <use xlink:href="#path-2"></use>
            </mask>
            <use id="Mask" fill="url(#linearGradient-1)" xlink:href="#path-2"></use>
            <g id="Group-19" mask="url(#mask-3)" stroke="#0D7A87" stroke-linecap="round" stroke-linejoin="round" stroke-width="37.3248">
                <g transform="translate(-159.000000, 0.000000)">
                    <path d="M63.1279134,371.798644 C27.8160119,369.085037 0,339.281164 0,302.914286 C0,269.121985 24.016977,240.996332 55.748156,235.006289 C55.4100327,231.560011 55.2369242,228.064713 55.2369242,224.528571 C55.2369242,166.562342 101.753654,119.571429 159.134948,119.571429 C187.378983,119.571429 212.990781,130.956262 231.718714,149.430963 C231.55338,147.471404 231.469016,145.488512 231.469016,143.485714 C231.469016,105.330728 262.087623,74.4 299.857589,74.4 C319.619393,74.4 337.423487,82.8674015 349.908609,96.4066799 C361.639811,41.3027623 410.144535,0 468.198691,0 C535.022477,0 589.193858,54.7235954 589.193858,122.228571 C589.193858,139.536551 585.632702,156.004298 579.210196,170.924874 C628.191531,177.434032 666,219.770972 666,271.028571 C666,326.083417 622.382209,370.846932 568.151221,371.978079 L568.151221,372 L63.1279134,372 L63.1279134,371.798644 Z" id="Combined-Shape"></path>
                    <path d="M533.440385,277.879518 C533.440385,234.031341 496.357287,198.48537 450.612967,198.48537 C424.93424,198.48537 401.984817,209.68653 386.792308,227.269638" id="Oval-3-Copy-5" transform="translate(460.116346, 238.182444) rotate(10.000000) translate(-460.116346, -238.182444) "></path>
                    <path d="M666,277.879518 C666,219.179539 621.146906,171.593804 565.81781,171.593804 C537.182826,171.593804 511.353808,184.339498 493.096154,204.77516" id="Oval-3-Copy-3"></path>
                </g>
            </g>
        </g>
    </g>
</svg>