<?xml version="1.0" encoding="UTF-8"?>
<!-- Changes applied to this file:
  - Change viewBox
  - Change width and height
-->
<svg width="25px" height="25px" viewBox="-2.5 -2.5 20 20" version="1.1" xmlns="http://www.w3.org/2000/svg" xmlns:xlink="http://www.w3.org/1999/xlink">
    <title>Plus Copy</title>
    <g id="Community-Crowd" stroke="none" stroke-width="1" fill="none" fill-rule="evenodd">
        <g id="Meetup-Crowd" transform="translate(-993.550000, -351.550000)" fill="white" fill-rule="nonzero">
            <g id="Group" transform="translate(918.901281, 358.853553) rotate(-45.000000) translate(-918.901281, -358.853553) translate(838.401281, 278.353553)">
                <g id="Group-3" transform="translate(0.000000, 0.000000)">
                    <g id="Icon+" transform="translate(14.802561, 15.197439)">
                        <path d="M118.44639,116.773351 L118.543013,116.860099 L123.651556,121.968556 L128.760099,116.860099 C129.224823,116.395375 129.978289,116.395375 130.443013,116.860099 C130.876756,117.293841 130.905672,117.97911 130.529762,118.44639 L130.443013,118.543013 L125.334556,123.651556 L130.443013,128.760099 C130.907737,129.224823 130.907737,129.978289 130.443013,130.443013 C130.009271,130.876756 129.324002,130.905672 128.856723,130.529762 L128.760099,130.443013 L123.651556,125.334556 L118.543013,130.443013 C118.078289,130.907737 117.324823,130.907737 116.860099,130.443013 C116.426357,130.009271 116.397441,129.324002 116.773351,128.856723 L116.860099,128.760099 L121.968556,123.651556 L116.860099,118.543013 C116.395375,118.078289 116.395375,117.324823 116.860099,116.860099 C117.293841,116.426357 117.97911,116.397441 118.44639,116.773351 Z" id="Plus-Copy" transform="translate(123.651556, 123.651556) rotate(45.000000) translate(-123.651556, -123.651556) "></path>
                    </g>
                </g>
            </g>
        </g>
    </g>
</svg>
