<?xml version="1.0" encoding="UTF-8"?>
<svg width="25px" height="25px" viewBox="0 0 25 25" version="1.1" xmlns="http://www.w3.org/2000/svg" xmlns:xlink="http://www.w3.org/1999/xlink">
    <title>Group 4</title>
    <g id="Community-Crowd" stroke="none" stroke-width="1" fill="none" fill-rule="evenodd">
        <g id="Meetup-Crowd" transform="translate(-898.500000, -346.000000)" fill="#505450">
            <g id="Group-4" transform="translate(897.000000, 344.000000)">
                <path d="M20.0266894,3.00051826 C20.2834241,2.99063184 20.5726027,3.12332046 20.7510787,3.30179648 C20.7987064,3.34942418 20.8416051,3.40260659 20.8790971,3.45978711 L24.6097629,7.19328379 C24.8171588,7.40067964 24.9147555,7.66908089 24.9269547,7.95578094 C24.9379406,8.2437006 24.7970313,8.51271087 24.6097629,8.71827809 C24.4279929,8.91835005 24.1120066,9.03546992 23.8472657,9.03546992 C23.6109353,9.03442856 23.3629528,8.94554558 23.1739991,8.79724706 L23.0847686,8.71827811 L21.052,6.686 L21.0515429,11.9461302 C21.0500727,12.1764986 20.9697269,12.3859408 20.836321,12.5660803 L20.7501167,12.6705806 C20.564644,12.8734395 20.2893578,12.9598096 20.0256663,12.9720068 C19.7689316,12.9818932 19.479753,12.8492046 19.3012776,12.6707292 C19.1453039,12.5147554 19.040048,12.2992103 19.0093102,12.0787612 L19,11.9463405 L19,6.56 L16.8421863,8.7182782 C16.6703714,8.89009304 16.453652,8.98650221 16.2209771,9.02163239 L16.0796891,9.03547003 C15.7917694,9.04645588 15.5227592,8.90554663 15.317192,8.71827822 C15.1171199,8.53650805 15,8.22052178 15,7.95578092 C15.00104,7.71944911 15.089924,7.47146764 15.2382228,7.28251425 L15.3171918,7.19328377 L19.2009802,3.3094954 C19.3890909,3.12138472 19.6363904,3.0192127 19.8888637,3.00246354 L20.0266894,3.00051826 Z" id="Path" transform="translate(19.963778, 7.986263) rotate(45.000000) translate(-19.963778, -7.986263) "></path>
                <path d="M20.0266894,16.0499968 C20.2834241,16.0401103 20.5726027,16.172799 20.7510787,16.351275 C20.7987064,16.3989027 20.8416051,16.4520851 20.8790971,16.5092656 L24.6097629,20.2427623 C24.8171588,20.4501581 24.9147555,20.7185594 24.9269547,21.0052594 C24.9379406,21.2931791 24.7970313,21.5621894 24.6097629,21.7677566 C24.4279929,21.9678286 24.1120066,22.0849484 23.8472657,22.0849484 C23.6109353,22.0839071 23.3629528,21.9950241 23.1739991,21.8467256 L23.0847686,21.7677566 L21.052,19.7354785 L21.0515429,24.9956087 C21.0500727,25.2259772 20.9697269,25.4354193 20.836321,25.6155588 L20.7501167,25.7200591 C20.564644,25.922918 20.2893578,26.0092882 20.0256663,26.0214853 C19.7689316,26.0313717 19.479753,25.8986831 19.3012776,25.7202077 C19.1453039,25.5642339 19.040048,25.3486888 19.0093102,25.1282397 L19,24.995819 L19,19.6094785 L16.8421863,21.7677567 C16.6703714,21.9395715 16.453652,22.0359807 16.2209771,22.0711109 L16.0796891,22.0849485 C15.7917694,22.0959344 15.5227592,21.9550251 15.317192,21.7677567 C15.1171199,21.5859866 15,21.2700003 15,21.0052594 C15.00104,20.7689276 15.089924,20.5209461 15.2382228,20.3319928 L15.3171918,20.2427623 L19.2009802,16.3589739 C19.3890909,16.1708632 19.6363904,16.0686912 19.8888637,16.051942 L20.0266894,16.0499968 Z" id="Path-Copy-2" transform="translate(19.963778, 21.035741) scale(1, -1) rotate(45.000000) translate(-19.963778, -21.035741) "></path>
                <path d="M8.02668945,3.00051826 C8.28342411,2.99063184 8.57260268,3.12332046 8.75107869,3.30179648 C8.7987064,3.34942418 8.84160511,3.40260659 8.8790971,3.45978711 L12.6097629,7.19328379 C12.8171588,7.40067964 12.9147555,7.66908089 12.9269547,7.95578094 C12.9379406,8.2437006 12.7970313,8.51271087 12.6097629,8.71827809 C12.4279929,8.91835005 12.1120066,9.03546992 11.8472657,9.03546992 C11.6109353,9.03442856 11.3629528,8.94554558 11.1739991,8.79724706 L11.0847686,8.71827811 L9.052,6.686 L9.05154287,11.9461302 C9.05007273,12.1764986 8.9697269,12.3859408 8.83632097,12.5660803 L8.75011672,12.6705806 C8.56464405,12.8734395 8.28935784,12.9598096 8.02566628,12.9720068 C7.76893162,12.9818932 7.47975305,12.8492046 7.30127762,12.6707292 C7.14530386,12.5147554 7.04004801,12.2992103 7.00931016,12.0787612 L7,11.9463405 L7,6.56 L4.84218626,8.7182782 C4.67037142,8.89009304 4.45365196,8.98650221 4.22097709,9.02163239 L4.07968911,9.03547003 C3.79176945,9.04645588 3.52275918,8.90554663 3.31719196,8.71827822 C3.11711985,8.53650805 3,8.22052178 3,7.95578092 C3.00104003,7.71944911 3.08992397,7.47146764 3.23822279,7.28251425 L3.31719183,7.19328377 L7.2009802,3.3094954 C7.38909088,3.12138472 7.63639041,3.0192127 7.88886372,3.00246354 L8.02668945,3.00051826 Z" id="Path-Copy" transform="translate(7.963778, 7.986263) scale(-1, 1) rotate(45.000000) translate(-7.963778, -7.986263) "></path>
                <path d="M8.02668945,16.0499968 C8.28342411,16.0401103 8.57260268,16.172799 8.75107869,16.351275 C8.7987064,16.3989027 8.84160511,16.4520851 8.8790971,16.5092656 L12.6097629,20.2427623 C12.8171588,20.4501581 12.9147555,20.7185594 12.9269547,21.0052594 C12.9379406,21.2931791 12.7970313,21.5621894 12.6097629,21.7677566 C12.4279929,21.9678286 12.1120066,22.0849484 11.8472657,22.0849484 C11.6109353,22.0839071 11.3629528,21.9950241 11.1739991,21.8467256 L11.0847686,21.7677566 L9.052,19.7354785 L9.05154287,24.9956087 C9.05007273,25.2259772 8.9697269,25.4354193 8.83632097,25.6155588 L8.75011672,25.7200591 C8.56464405,25.922918 8.28935784,26.0092882 8.02566628,26.0214853 C7.76893162,26.0313717 7.47975305,25.8986831 7.30127762,25.7202077 C7.14530386,25.5642339 7.04004801,25.3486888 7.00931016,25.1282397 L7,24.995819 L7,19.6094785 L4.84218626,21.7677567 C4.67037142,21.9395715 4.45365196,22.0359807 4.22097709,22.0711109 L4.07968911,22.0849485 C3.79176945,22.0959344 3.52275918,21.9550251 3.31719196,21.7677567 C3.11711985,21.5859866 3,21.2700003 3,21.0052594 C3.00104003,20.7689276 3.08992397,20.5209461 3.23822279,20.3319928 L3.31719183,20.2427623 L7.2009802,16.3589739 C7.38909088,16.1708632 7.63639041,16.0686912 7.88886372,16.051942 L8.02668945,16.0499968 Z" id="Path-Copy-3" transform="translate(7.963778, 21.035741) scale(-1, -1) rotate(45.000000) translate(-7.963778, -21.035741) "></path>
            </g>
        </g>
    </g>
</svg>
