<svg width="36px" height="100px" viewBox="0 0 36 100" version="1.1" xmlns="http://www.w3.org/2000/svg" xmlns:xlink="http://www.w3.org/1999/xlink">
    <g id="Page-1" stroke="none" stroke-width="1" fill="none" fill-rule="evenodd">
        <g id="Artboard-Copy" transform="translate(-883.000000, -337.000000)" fill="#000000
">
            <path d="M900.9881,337 C905.9764,337 910.4608,339.0156 913.7111,342.2617 C917.008,345.5586 919.0197,350.0429 919.0197,354.9847 C919.0197,359.973 917.0041,364.4574 913.7111,367.7077 C910.9181,370.5436 907.1681,372.4225 903.0001,372.8796 L903.0001,434.984599 C903.0001,436.082299 902.08604,437.000199 900.9845,437.000199 C899.8868,437.000199 899.0157,436.086139 899.0157,434.984599 L899.0157,372.8796 C894.8516,372.42257 891.0977,370.5437 888.2617,367.7077 C885.0117,364.4577 883,359.9733 883,354.9847 C883,350.0433 885.0156,345.555 888.2617,342.2617 C891.5586,339.0117 896.0429,337 900.9847,337 L900.9881,337 Z" id="Fill-1"></path>
        </g>
    </g>
</svg>
