<?xml version="1.0" encoding="UTF-8"?>
<svg width="21px" height="20px" viewBox="0 0 21 20" version="1.1" xmlns="http://www.w3.org/2000/svg" xmlns:xlink="http://www.w3.org/1999/xlink">
    <title>Plus</title>
    <g id="Community-Crowd" stroke="none" stroke-width="1" fill="none" fill-rule="evenodd">
        <g id="Meetup-Crowd" transform="translate(-827.000000, -349.25)" fill="white" fill-rule="nonzero">
            <g id="Group" transform="translate(874.000000, 358.500000) rotate(-45.000000) translate(-874.000000, -358.500000) translate(825.000000, 310.000000)">
                <g id="Group-3" transform="translate(0.000000, 0.000000)">
                    <g id="Icon+" transform="translate(14.802561, 15.197439)">
                        <path d="M2.7448335,1.07179447 L2.84145707,1.15854293 L7.95,6.267 L13.0585429,1.15854293 C13.5232668,0.693819023 14.2767332,0.693819023 14.7414571,1.15854293 C15.1751994,1.59228524 15.2041155,2.27755429 14.8282055,2.7448335 L14.7414571,2.84145707 L9.633,7.95 L14.7414571,13.0585429 C15.206181,13.5232668 15.206181,14.2767332 14.7414571,14.7414571 C14.3077148,15.1751994 13.6224457,15.2041155 13.1551665,14.8282055 L13.0585429,14.7414571 L7.95,9.633 L2.84145707,14.7414571 C2.37673316,15.206181 1.62326684,15.206181 1.15854293,14.7414571 C0.724800617,14.3077148 0.695884463,13.6224457 1.07179447,13.1551665 L1.15854293,13.0585429 L6.267,7.95 L1.15854293,2.84145707 C0.693819023,2.37673316 0.693819023,1.62326684 1.15854293,1.15854293 C1.59228524,0.724800617 2.27755429,0.695884463 2.7448335,1.07179447 Z" id="Plus"></path>
                    </g>
                </g>
            </g>
        </g>
    </g>
</svg>
