<?xml version="1.0" encoding="UTF-8"?>
<svg width="14px" height="12px" viewBox="0 0 14 12" version="1.1" xmlns="http://www.w3.org/2000/svg" xmlns:xlink="http://www.w3.org/1999/xlink">
    <!-- Generator: Sketch 46.2 (44496) - http://www.bohemiancoding.com/sketch -->
    <title>Group</title>
    <desc>Created with Sketch.</desc>
    <defs></defs>
    <g id="Symbols" stroke="none" stroke-width="1" fill="none" fill-rule="evenodd">
        <g id="Button/Primary" transform="translate(-273.000000, -10.000000)" fill="#000000">
            <g id="Group" transform="translate(280.000000, 16.000000) rotate(-90.000000) translate(-280.000000, -16.000000) translate(274.000000, 9.000000)">
                <path d="M9,3 C9,4.65822608 7.65459376,6 5.99958048,6 C4.34288911,6 3,4.65822608 3,3 C3,1.3459709 4.34288911,0 5.99958048,0 C7.65459376,0 9,1.3459709 9,3" id="Fill-31"></path>
                <path d="M12,7.57631332 C12,7.17417003 11.8588091,6.80737999 11.5801105,6.48257195 C11.2944547,6.16262498 10.9600982,6 10.5856354,6 C10.2230407,6 9.8940045,6.15688008 9.60671168,6.46577915 C9.60671168,6.46577915 6.30366278,9.96177429 6.00040925,10.2839308 C5.69674647,9.96177429 2.39410681,6.46577915 2.39410681,6.46577915 C2.10558625,6.15688008 1.77695928,6 1.41477389,6 C1.04031103,6 0.705136075,6.16262498 0.419889503,6.48257195 C0.140781666,6.80737999 0,7.17417003 0,7.57631332 C0,7.96608297 0.138326171,8.31387063 0.412113771,8.60907032 L4.9257213,13.4834005 C4.9249028,13.4878197 4.92408431,13.491355 4.92408431,13.491355 C5.22733784,13.8289786 5.58829548,14 5.99672601,14 L6.00040925,14 L6.00327399,14 C6.41170452,14 6.77307141,13.8289786 7.07591569,13.491355 C7.07591569,13.491355 7.0750972,13.4878197 7.0742787,13.4834005 L11.5882955,8.60907032 C11.8612646,8.31387063 12,7.96608297 12,7.57631332" id="Fill-33"></path>
            </g>
        </g>
    </g>
</svg>