<?xml version="1.0" encoding="UTF-8"?>
<svg width="18px" height="19px" viewBox="0 0 18 19" version="1.1" xmlns="http://www.w3.org/2000/svg" xmlns:xlink="http://www.w3.org/1999/xlink">
    <!-- Generator: Sketch 46.2 (44496) - http://www.bohemiancoding.com/sketch -->
    <title>Page 1</title>
    <desc>Created with Sketch.</desc>
    <defs></defs>
    <g id="Kenniscloud" stroke="none" stroke-width="1" fill="none" fill-rule="evenodd">
        <g id="Kennisgroep/Meetup" transform="translate(-766.000000, -145.000000)" fill="#505450">
            <path d="M782.315771,147.567568 L781.676075,147.567568 C781.246923,147.567568 780.898739,147.909256 780.898739,148.3304 C780.898739,148.751545 781.246923,149.093233 781.676075,149.093233 L782.315771,149.093233 C782.386623,149.093233 782.445327,149.150842 782.445327,149.220372 L782.445327,151.943938 L767.554673,151.943938 L767.554673,149.220372 C767.554673,149.150842 767.613377,149.093233 767.684229,149.093233 L768.323925,149.093233 C768.753077,149.093233 769.101261,148.751545 769.101261,148.3304 C769.101261,147.909256 768.753077,147.567568 768.323925,147.567568 L767.684229,147.567568 C766.755053,147.567568 766,148.308532 766,149.220372 L766,162.347196 C766,163.259035 766.755053,164 767.684229,164 L782.315771,164 C783.244947,164 784,163.259035 784,162.347196 L784,149.220372 C784,148.308532 783.244947,147.567568 782.315771,147.567568 Z M782.457143,162.328957 C782.457143,162.400326 782.398345,162.459459 782.327381,162.459459 L767.672619,162.459459 C767.601655,162.459459 767.542857,162.400326 767.542857,162.328957 L767.542857,153.216216 L782.457143,153.216216 L782.457143,162.328957 Z M772.455959,149.108108 L778.058326,149.108108 C778.499337,149.108108 778.857143,148.763089 778.857143,148.337838 C778.857143,147.912587 778.499337,147.567568 778.058326,147.567568 L772.455959,147.567568 C772.014943,147.567568 771.657143,147.912587 771.657143,148.337838 C771.657143,148.763089 772.014943,149.108108 772.455959,149.108108 Z M770.371429,150.648649 C770.797319,150.648649 771.142857,150.297646 771.142857,149.865021 L771.142857,145.783628 C771.142857,145.351002 770.797319,145 770.371429,145 C769.945538,145 769.6,145.351002 769.6,145.783628 L769.6,149.865021 C769.6,150.297646 769.945538,150.648649 770.371429,150.648649 Z M779.628571,150.648649 C780.054462,150.648649 780.4,150.297646 780.4,149.865021 L780.4,145.783628 C780.4,145.351002 780.054462,145 779.628571,145 C779.202681,145 778.857143,145.351002 778.857143,145.783628 L778.857143,149.865021 C778.857143,150.297646 779.202681,150.648649 779.628571,150.648649 Z" id="Page-1"></path>
        </g>
    </g>
</svg>