<svg width="80px" height="72px" viewBox="0 0 80 72" version="1.1" xmlns="http://www.w3.org/2000/svg" xmlns:xlink="http://www.w3.org/1999/xlink">
    <g id="Page-1" stroke="none" stroke-width="1" fill="none" fill-rule="evenodd">
        <path d="M79.543135,34.7300188 C79.050945,34.1323588 71.336135,24.9175188 60.422135,18.4060188 L75.414135,3.41401875 C76.195385,2.63276875 76.195385,1.36711875 75.414135,0.58591875 C74.632885,-0.19528125 73.367235,-0.19533125 72.586035,0.58591875 L56.762035,16.4059188 C51.605835,13.8239188 45.910035,11.9997188 40.000035,11.9997188 C19.410035,11.9997188 1.219035,33.8007188 0.457035,34.7297188 C-0.152345,35.4679988 -0.152345,36.5305188 0.457035,37.2688188 C0.949225,37.8664788 8.664035,47.0813188 19.578035,53.5928188 L4.586035,68.5848188 C3.804785,69.3660688 3.804785,70.6317188 4.586035,71.4129188 C4.976655,71.8035488 5.488375,71.9988588 6.000135,71.9988588 C6.511895,71.9988588 7.023535,71.8035488 7.414235,71.4129188 L23.238235,55.5929188 C28.398435,58.1788188 34.090235,59.9991188 40.004235,59.9991188 C60.594235,59.9991188 78.785235,38.1981188 79.547235,37.2691188 C80.152705,36.5308388 80.152705,35.4683188 79.543335,34.7300188 L79.543135,34.7300188 Z M4.664035,35.9995188 C8.828235,31.4097188 24.012135,15.9995188 40.000135,15.9995188 C44.754035,15.9995188 49.422035,17.3784188 53.762135,19.4097188 L46.930135,26.2378188 C44.973135,24.8433188 42.590335,23.9995188 40.000435,23.9995188 C33.383235,23.9995188 28.000435,29.3823188 28.000435,35.9995188 C28.000435,38.5854188 28.840275,40.9683188 30.238735,42.9331188 L22.516035,50.6558188 C13.976935,45.7535188 7.227035,38.8278188 4.664035,35.9998188 L4.664035,35.9995188 Z M48.000135,35.9995188 C48.000135,40.4097188 44.410335,43.9995188 40.000135,43.9995188 C38.519635,43.9995188 37.152435,43.5698288 35.961035,42.8667188 L46.867035,31.9607188 C47.566255,33.1521188 47.999835,34.5193188 47.999835,35.9998188 L48.000135,35.9995188 Z M32.000135,35.9995188 C32.000135,31.5893188 35.589935,27.9995188 40.000135,27.9995188 C41.480635,27.9995188 42.847835,28.4292088 44.039235,29.1323188 L33.133235,40.0383188 C32.434015,38.8469188 32.000435,37.4797188 32.000435,35.9992188 L32.000135,35.9995188 Z M40.000135,55.9995188 C35.246235,55.9995188 30.578235,54.6206188 26.238135,52.5893188 L33.070135,45.7612188 C35.031035,47.1557188 37.413935,47.9995188 40.003735,47.9995188 C46.620935,47.9995188 52.003735,42.6167188 52.003735,35.9995188 C52.003735,33.4136188 51.163895,31.0307188 49.765435,29.0659188 L57.488135,21.3432188 C66.027235,26.2494188 72.777135,33.1712188 75.340135,35.9992188 C71.172135,40.5890188 55.992135,55.9995188 40.000135,55.9995188 L40.000135,55.9995188 Z" id="Fill-1" fill="#000000"></path>
    </g>
</svg>
