<?xml version="1.0" encoding="UTF-8"?>
<svg width="13px" height="10px" viewBox="0 0 13 10" version="1.1" xmlns="http://www.w3.org/2000/svg" xmlns:xlink="http://www.w3.org/1999/xlink">
    <!-- Generator: Sketch 46.2 (44496) - http://www.bohemiancoding.com/sketch -->
    <title>Page 1 Copy</title>
    <desc>Created with Sketch.</desc>
    <defs></defs>
    <g id="Kenniscloud" stroke="none" stroke-width="1" fill="none" fill-rule="evenodd">
        <g id="Kennisgroep/Verdieping-Copy-4" transform="translate(-84.000000, -531.000000)" fill="#000000">
            <g id="Group-8" transform="translate(84.000000, 522.000000)">
                <path d="M2.67424784,9.00050571 C2.57338569,9.0092628 2.48169266,9.05843909 2.42033646,9.13523348 L0.0729833799,12.0669098 C-0.0321112288,12.2002907 -0.0229421066,12.3862211 0.0955540826,12.5088169 L6.23478522,18.8895241 C6.30320333,18.9602568 6.39912882,19 6.5,19 C6.60087118,19 6.69678041,18.9602551 6.76521478,18.8895241 L12.9044459,12.5088169 C13.0229421,12.3862142 13.0321112,12.2002838 12.9270166,12.0669098 L10.5796635,9.13523348 C10.5112454,9.049682 10.4047406,8.99983143 10.2918781,9.00050571 L2.70812195,9.00050571 C2.6968366,8.99983143 2.68555124,8.99983143 2.67426589,9.00050571 L2.67424784,9.00050571 Z" id="Page-1-Copy"></path>
            </g>
        </g>
    </g>
</svg>