<?xml version="1.0" encoding="UTF-8"?>
<svg width="38px" height="30px" viewBox="0 0 38 30" version="1.1" xmlns="http://www.w3.org/2000/svg" xmlns:xlink="http://www.w3.org/1999/xlink">
    <!-- Generator: Sketch 46.2 (44496) - http://www.bohemiancoding.com/sketch -->
    <title>Page 1</title>
    <desc>Created with Sketch.</desc>
    <defs></defs>
    <g id="Kenniscloud" stroke="none" stroke-width="1" fill="none" fill-rule="evenodd">
        <g id="Kennisgroep/Verdieping-Copy-5" transform="translate(-643.000000, -146.000000)" fill="#000000">
            <g id="Group-2" transform="translate(637.000000, 132.000000)">
                <path d="M14.1577874,14.4751481 C13.8719432,14.5004976 13.6120845,14.64285 13.4382005,14.8651496 L6.78578286,23.3515809 C6.48794389,23.7376836 6.51392925,24.2759031 6.84974841,24.6307857 L24.2483792,43.1012539 C24.4422767,43.3060066 24.7141303,43.4210526 25,43.4210526 C25.2858697,43.4210526 25.5576773,43.3060016 25.7516208,43.1012539 L43.1502516,24.6307857 C43.4860707,24.2758831 43.5120561,23.7376636 43.2142171,23.3515809 L36.5617995,14.8651496 C36.367902,14.6175005 36.0660665,14.4731962 35.7462131,14.4751481 L14.2537869,14.4751481 C14.2218041,14.4731962 14.1898213,14.4731962 14.1578386,14.4751481 L14.1577874,14.4751481 Z M14.7494432,16.4719555 L20.0104821,16.4719555 L16.6842733,22.9615795 L9.66392576,22.9615795 L14.7494432,16.4719555 Z M22.2973786,16.4719555 L27.702212,16.4719555 L31.0284209,22.9615795 L18.9711698,22.9615795 L22.2973786,16.4719555 Z M29.9891085,16.4719555 L35.2501474,16.4719555 L40.335409,22.9615795 L33.3150615,22.9615795 L29.9891085,16.4719555 Z M9.93565144,24.9583869 L16.6520346,24.9583869 L22.2170378,38.0000351 L9.93565144,24.9583869 Z M18.8591021,24.9583869 L31.1404885,24.9583869 L24.9997953,39.3259152 L18.8591021,24.9583869 Z M33.3470443,24.9583869 L40.0634275,24.9583869 L27.7820411,38.0000351 L33.3470443,24.9583869 Z" id="Page-1"></path>
            </g>
        </g>
    </g>
</svg>