<?xml version="1.0" encoding="UTF-8"?>
<svg width="35px" height="33px" viewBox="0 0 35 33" version="1.1" xmlns="http://www.w3.org/2000/svg" xmlns:xlink="http://www.w3.org/1999/xlink">
    <!-- Generator: Sketch 46.2 (44496) - http://www.bohemiancoding.com/sketch -->
    <title>Group</title>
    <desc>Created with Sketch.</desc>
    <defs></defs>
    <g id="Kenniscloud" stroke="none" stroke-width="1" fill="none" fill-rule="evenodd">
        <g id="Kennisgroep/Verdieping-Copy-4" transform="translate(-930.000000, -431.000000)" fill="#000000">
            <g id="Group-6-Copy" transform="translate(768.000000, 421.000000)">
                <g id="Group-5-Copy">
                    <g id="Group-7">
                        <g id="Group-3" transform="translate(152.078957, 0.000000)">
                            <g id="Group" transform="translate(10.064049, 10.047113)">
                                <path d="M33.1744229,23.765325 C28.4587539,20.6578122 23.0171323,18.9778802 17.4130682,18.9778802 L17.2115267,18.9778802 C11.609478,18.9778802 6.16785639,20.6153056 1.450172,23.765325 C0.56371169,24.3526879 0,25.4027504 0,26.5365238 L0,31.1139561 C0,31.8276625 0.524330473,32.374031 1.20924925,32.374031 C1.89416802,32.374031 2.41849849,31.8276625 2.41849849,31.1139561 L2.41849849,26.5365238 C2.41849849,26.2838536 2.53973782,25.9901553 2.78064446,25.8638118 C7.09484268,23.008944 12.0926698,21.496392 17.2114219,21.496392 L17.4129634,21.496392 C22.5317155,21.496392 27.5311549,23.009154 31.8828399,25.8638118 C32.0843814,25.9901469 32.2449858,26.241179 32.2449858,26.5365238 L32.2449858,31.1139561 C32.2449858,31.8276625 32.7693163,32.374031 33.4542351,32.374031 C34.1391539,32.374031 34.6634843,31.8276625 34.6634843,31.1139561 L34.6650564,26.5365238 C34.6650564,25.4027924 34.101385,24.3527299 33.1739714,23.765325 L33.1744229,23.765325 Z" id="Fill-1"></path>
                                <path d="M18.6024754,16.7451885 C21.9170404,16.7451885 24.6010077,14.1569912 24.6010077,10.9608676 L24.6010077,5.78432089 C24.6010077,2.5881211 21.9169615,0 18.6024754,0 L17.142526,0 C13.8664804,0 11.1822762,2.58819722 11.1822762,5.78432089 L11.1822762,10.9977831 C11.1822762,14.156839 13.8663225,16.7451885 17.1808086,16.7451885 L18.6024754,16.7451885 Z M13.5503527,10.9608676 L13.5503527,5.78432089 C13.5503527,3.88145857 15.1691158,2.28335867 17.1809665,2.28335867 L18.6409159,2.28335867 C20.6142471,2.28335867 22.2715297,3.8443147 22.2715297,5.78432089 L22.2715297,10.9977831 C22.2715297,12.9006454 20.6527666,14.4987453 18.6409159,14.4987453 L17.1809665,14.4987453 C15.1690763,14.4615786 13.5503527,12.9006454 13.5503527,10.9606012 L13.5503527,10.9608676 Z" id="Fill-2"></path>
                            </g>
                        </g>
                    </g>
                </g>
            </g>
        </g>
    </g>
</svg>