<?xml version="1.0" encoding="UTF-8"?>
<svg width="13px" height="10px" viewBox="0 0 13 10" version="1.1" xmlns="http://www.w3.org/2000/svg" xmlns:xlink="http://www.w3.org/1999/xlink">
    <!-- Generator: Sketch 46.2 (44496) - http://www.bohemiancoding.com/sketch -->
    <title></title>
    <desc>Created with Sketch.</desc>
    <defs></defs>
    <g id="Kenniscloud" stroke="none" stroke-width="1" fill="none" fill-rule="evenodd">
        <g id="Kennisgroep/Verdieping-Copy-4" transform="translate(-210.000000, -530.000000)" fill="#000000">
            <g id="Group-8" transform="translate(84.000000, 522.000000)">
                <g id="Group-Copy-3" transform="translate(126.000000, 8.000000)">
                    <path d="M9.82142857,3.57142857 C9.82142857,4.21782317 9.60286677,4.81538044 9.16573661,5.3641183 C8.72860645,5.91285617 8.13221174,6.34649208 7.3765346,6.66503906 C6.62085746,6.98358604 5.79892557,7.14285714 4.91071429,7.14285714 C4.51078669,7.14285714 4.10156459,7.10565513 3.68303571,7.03125 C3.10639593,7.44047824 2.46001102,7.73809431 1.74386161,7.92410714 C1.57645006,7.96596003 1.37648926,8.00316204 1.14397321,8.03571429 L1.12304688,8.03571429 C1.07189335,8.03571429 1.02422827,8.01711328 0.980050223,7.97991071 C0.935872175,7.94270815 0.909133231,7.89388051 0.899832589,7.83342634 C0.895182268,7.81947538 0.892857143,7.80436206 0.892857143,7.78808594 C0.892857143,7.77180981 0.894019706,7.7566965 0.896344866,7.74274554 C0.898670027,7.72879457 0.903320278,7.71484382 0.910295759,7.70089286 L0.927734375,7.66601563 C0.932384696,7.65671498 0.940522635,7.64392679 0.952148438,7.62765067 C0.96377424,7.61137455 0.973074742,7.59974892 0.980050223,7.59277344 C0.987025705,7.58579796 0.99748877,7.57417233 1.01143973,7.55789621 C1.02539069,7.54162008 1.0346912,7.53115702 1.03934152,7.5265067 C1.06259312,7.49860477 1.11607101,7.44047663 1.19977679,7.35212054 C1.28348256,7.26376444 1.34393583,7.19517324 1.38113839,7.14634487 C1.41834096,7.0975165 1.47065628,7.03008786 1.53808594,6.94405692 C1.60551559,6.85802598 1.66364373,6.76850865 1.7124721,6.67550223 C1.76130047,6.58249581 1.80896554,6.48019029 1.85546875,6.36858259 C1.27882896,6.03375949 0.825429478,5.62221226 0.495256696,5.13392857 C0.165083915,4.64564488 0,4.12481676 0,3.57142857 C0,2.92503397 0.218561802,2.3274767 0.655691964,1.77873884 C1.09282213,1.23000098 1.68921683,0.79636506 2.44489397,0.47781808 C3.20057111,0.159271101 4.022503,0 4.91071429,0 C5.79892557,0 6.62085746,0.159271101 7.3765346,0.47781808 C8.13221174,0.79636506 8.72860645,1.23000098 9.16573661,1.77873884 C9.60286677,2.3274767 9.82142857,2.92503397 9.82142857,3.57142857 Z M12.5,5.35714286 C12.5,5.91518136 12.3349161,6.43717205 12.0047433,6.92313058 C11.6745705,7.40908911 11.221171,7.81947377 10.6445312,8.15429688 C10.6910345,8.26590458 10.7386995,8.3682101 10.7875279,8.46121652 C10.8363563,8.55422294 10.8944844,8.64374027 10.9619141,8.72977121 C11.0293437,8.81580214 11.081659,8.88323078 11.1188616,8.93205915 C11.1560642,8.98088752 11.2165174,9.04947872 11.3002232,9.13783482 C11.383929,9.22619092 11.4374069,9.28431906 11.4606585,9.31222098 C11.4653088,9.3168713 11.4746093,9.32733437 11.4885603,9.34361049 C11.5025112,9.35988661 11.5129743,9.37151224 11.5199498,9.37848772 C11.5269253,9.3854632 11.5362258,9.39708883 11.5478516,9.41336496 C11.5594774,9.42964108 11.5676153,9.44242927 11.5722656,9.45172991 L11.5897042,9.48660714 C11.5966797,9.50055811 11.60133,9.51450886 11.6036551,9.52845982 C11.6059803,9.54241078 11.6071429,9.5575241 11.6071429,9.57380022 C11.6071429,9.59007635 11.6048177,9.60518966 11.6001674,9.61914062 C11.5862164,9.68424512 11.5559898,9.73539788 11.5094866,9.77260045 C11.4629834,9.80980301 11.4118306,9.82607889 11.3560268,9.82142857 C11.1235107,9.78887633 10.9235499,9.75167432 10.7561384,9.70982143 C10.039989,9.52380859 9.39360407,9.22619252 8.81696429,8.81696429 C8.39843541,8.89136942 7.98921331,8.92857143 7.58928571,8.92857143 C6.32904876,8.92857143 5.23158949,8.62165485 4.296875,8.0078125 C4.56659361,8.02641378 4.77120466,8.03571429 4.91071429,8.03571429 C5.65941595,8.03571429 6.37787974,7.93108364 7.06612723,7.7218192 C7.75437472,7.51255476 8.36820787,7.21261356 8.90764509,6.82198661 C9.4889352,6.39415709 9.93535931,5.90123047 10.2469308,5.34319196 C10.5585023,4.78515346 10.7142857,4.19457157 10.7142857,3.57142857 C10.7142857,3.21335386 10.6608078,2.85993478 10.5538504,2.51116071 C11.1537418,2.8413335 11.6280675,3.25520585 11.9768415,3.75279018 C12.3256156,4.25037451 12.5,4.78515339 12.5,5.35714286 Z" id=""></path>
                </g>
            </g>
        </g>
    </g>
</svg>