<?xml version="1.0" encoding="UTF-8"?>
<svg width="29px" height="29px" viewBox="0 0 29 29" version="1.1" xmlns="http://www.w3.org/2000/svg" xmlns:xlink="http://www.w3.org/1999/xlink">
    <!-- Generator: Sketch 46.2 (44496) - http://www.bohemiancoding.com/sketch -->
    <title>Page 1</title>
    <desc>Created with Sketch.</desc>
    <defs></defs>
    <g id="Symbols" stroke="none" stroke-width="1" fill="none" fill-rule="evenodd">
        <g id="Menu-2" transform="translate(-975.000000, -21.000000)" fill="#000000">
            <path d="M994.140469,24.2838457 C992.022611,22.1671421 989.207298,21 986.211566,21 C983.217018,21 980.401617,22.1659281 978.283847,24.2838457 C976.166076,26.4017634 975,29.2170171 975,32.2115646 C975,35.2061121 976.165928,38.0215138 978.283847,40.1392834 C980.400551,42.2571418 983.217018,43.4231292 986.211566,43.4231292 C989.206113,43.4231292 992.022699,42.2572011 994.139285,40.1392834 C998.511626,35.7693109 998.511626,28.655891 994.140439,24.2835496 L994.140469,24.2838457 Z M992.577814,38.5779021 C990.877499,40.2770628 988.61736,41.2139508 986.212661,41.2139508 C983.807933,41.2139508 981.547765,40.2770332 979.848693,38.5779021 C978.148377,36.8775866 977.212643,34.617448 977.212643,32.212749 C977.212643,29.8080205 978.148407,27.5478522 979.848693,25.8475959 C981.549008,24.1484352 983.809147,23.2115472 986.212661,23.2115472 C988.61739,23.2115472 990.877558,24.1484648 992.57663,25.8475959 C996.086111,29.3579648 996.086111,35.0675332 992.577785,38.5779021 L992.577814,38.5779021 Z M1003.67508,48.1123069 L997.492627,41.9298529 C997.061197,41.4984225 996.361403,41.4984225 995.928818,41.9298529 C995.497387,42.3624381 995.497387,43.061077 995.928818,43.4936623 L1002.11127,49.6761163 C1002.32757,49.8924148 1002.61096,50 1002.89318,50 C1003.17656,50 1003.4588,49.8924296 1003.67508,49.6761163 C1004.10767,49.243531 1004.10767,48.5437373 1003.67508,48.1123069 Z" id="Page-1"></path>
        </g>
    </g>
</svg>